<svg width="38" height="38" viewBox="0 0 38 38" fill="none" xmlns="http://www.w3.org/2000/svg">
<g id="Box" clip-path="url(#clip0_73_2040)">
<g id="Switch">
<path id="Vector" d="M18.0931 0.745665L3.82806 8.31848C3.43238 8.52852 3.18506 8.93984 3.18506 9.38794V28.3972C3.18506 29.1651 3.61652 29.8676 4.30118 30.2149L18.2898 37.31C18.7361 37.5364 19.2637 37.5364 19.7099 37.31L33.6986 30.2149C34.3833 29.8676 34.8148 29.165 34.8148 28.3972V9.38794C34.8148 8.93984 34.5674 8.52852 34.1716 8.31848L19.9067 0.745665C19.3397 0.444804 18.6602 0.444804 18.0931 0.745665Z" fill="#FFCE94"/>
<path id="Vector_2" d="M19 37.4803C19.2434 37.4803 19.487 37.4237 19.7101 37.3105L33.6988 30.2154C34.3834 29.8682 34.8149 29.1655 34.8149 28.3978V9.38823C34.8149 9.19032 34.7644 9.00093 34.6764 8.83154L19 17.181V37.4803Z" fill="#FCB043"/>
<path id="Vector_3" d="M19 17.1806L3.32367 8.83105C3.2356 9.00044 3.18506 9.18984 3.18506 9.38774V28.3972C3.18506 29.165 3.61652 29.8676 4.30118 30.2148L18.2898 37.3099C18.513 37.4231 18.7564 37.4797 18.9998 37.4797V17.1806H19Z" fill="#E2791B"/>
<path id="Vector_4" d="M24.5888 3.23145L8.72363 11.6804V14.3839C8.72363 14.6434 8.86674 14.8817 9.09567 15.0038L11.8528 16.4733C12.0716 16.5899 12.3357 16.4314 12.3357 16.1835V13.6603L28.2256 5.16208L24.5888 3.23145Z" fill="#DEF2FC"/>
<g id="Container">
<path id="Vector_5" d="M21.2852 32.0853L25.5176 30.0611C26.0595 29.8021 26.3989 29.249 26.3847 28.6485L26.3843 28.6298C26.3725 28.1344 25.8466 27.8218 25.4058 28.0482L21.2853 30.1643V32.0853H21.2852V32.0853Z" fill="#403A46"/>
<path id="Vector_6" d="M21.2852 35.0368L23.6094 33.9571C24.1597 33.7013 24.5063 33.1438 24.4919 32.5371C24.4802 32.04 23.9512 31.7275 23.5102 31.9572L21.2852 33.1156V35.0368Z" fill="#403A46"/>
</g>
<path id="Vector_7" d="M8.72363 11.7075V14.3839C8.72363 14.6433 8.86674 14.8816 9.09567 15.0037L11.8528 16.4733C12.0716 16.5899 12.3357 16.4314 12.3357 16.1834V13.6602L12.3626 13.6458C11.4288 13.1484 9.91194 12.3404 8.72363 11.7075Z" fill="#B6C8CE"/>
</g>
</g>
<defs>
<clipPath id="clip0_73_2040">
<rect width="36.96" height="36.96" fill="white" transform="translate(0.52002 0.52002)"/>
</clipPath>
</defs>
</svg>
