<svg width="42" height="42" viewBox="0 0 42 42" fill="none" xmlns="http://www.w3.org/2000/svg">
<path d="M23.8194 32.2522L22.6177 39.9468C22.4314 41.1362 21.4225 42 20.2191 42H8.85363V30.2269L12.6066 25.9949V20.7539H12.7354C14.6385 20.7539 16.1864 22.3018 16.1864 24.205V29.4492H21.4208C22.1312 29.4492 22.8039 29.7593 23.2657 30.2991C23.4938 30.5652 23.6615 30.8776 23.7571 31.2148C23.8527 31.552 23.8739 31.906 23.8194 32.2522ZM2.72098 30.9143H6.3927V42H2.72098V30.9143Z" fill="#FF5042"/>
<path d="M35.4638 3.99082C32.5664 4.0087 29.9054 2.43305 28.3721 0H26.1237C24.5862 2.43124 21.9293 4.00952 19.0304 3.99082H15.2152V18.8385C17.2808 19.7968 18.6508 21.8811 18.6473 24.205C18.6471 24.7797 18.6475 26.435 18.6473 26.9883H21.4208C23.4488 26.964 25.3691 28.3251 26.0269 30.2375H26.0277C26.3005 31 26.3778 31.8278 26.2516 32.632L26.1901 33.0233L27.2467 33.5114L34.9379 29.9603C37.5752 28.7421 39.279 26.0786 39.279 23.1738V3.99082H35.4638ZM23.47 10.692L25.7316 12.9536L31.0242 7.6609L32.7641 9.4016L25.7316 16.4341L21.7301 12.4318L23.47 10.692ZM22.2928 23.9671V21.5061H32.2014V23.9671H22.2928Z" fill="#FF5042"/>
</svg>
