<svg width="36" height="42" viewBox="0 0 36 42" fill="none" xmlns="http://www.w3.org/2000/svg">
<path d="M35.7798 35.6861L30.282 26.2374C31.2334 25.9472 32.2468 25.6909 32.6679 24.9638C33.3697 23.7523 32.1205 21.7649 32.4485 20.4663C32.7864 19.1298 34.7811 17.9734 34.7811 16.6149C34.7811 15.2913 32.7189 13.7451 32.3807 12.4165C32.0504 11.1181 33.2959 9.12856 32.5918 7.91853C31.8878 6.70838 29.5427 6.8078 28.5774 5.87891C27.5842 4.923 27.5872 2.5842 26.3892 1.9436C25.1863 1.30061 23.2314 2.60009 21.8958 2.29227C20.5755 1.98797 19.3959 0 18.0167 0C16.6171 0 14.391 2.25504 14.0419 2.3362C12.707 2.64651 10.7496 1.35021 9.54792 1.99592C8.35104 2.63868 8.35842 4.97771 7.36699 5.93521C6.40325 6.8658 4.05809 6.77069 3.3562 7.9822C2.65442 9.19349 3.90361 11.1804 3.57571 12.4797C3.24689 13.7822 1.18276 15.102 1.18276 16.6084C1.18276 17.967 3.18243 19.1199 3.52236 20.4556C3.85276 21.754 2.60731 23.7433 3.31136 24.9538C3.69466 25.6127 4.5643 25.8832 5.43281 26.1432C5.53417 26.1735 5.72587 26.2869 5.59603 26.4761L0.219475 35.7554C-0.160981 36.4119 0.147969 36.9746 0.905817 37.0065L4.61538 37.1612C5.37323 37.1931 6.32391 37.7438 6.72843 38.3854L8.70789 41.5265C9.11241 42.1681 9.75426 42.1561 10.1346 41.4997C10.1346 41.4997 15.6731 31.9377 15.6754 31.9349C15.7865 31.8051 15.8982 31.8318 15.9517 31.8772C16.5576 32.3931 17.4024 32.9079 18.1075 32.9079C18.7989 32.9079 19.4392 32.4233 20.0725 31.883C20.1241 31.839 20.2495 31.749 20.3412 31.9358C20.3427 31.9388 25.8751 41.4485 25.8751 41.4485C26.2564 42.1041 26.8984 42.1152 27.3017 41.4728L29.2756 38.328C29.679 37.6859 30.6286 37.1331 31.3865 37.1L35.0957 36.9384C35.8532 36.9052 36.1611 36.3416 35.7798 35.6861ZM24.1472 27.0849C20.0458 29.4711 15.1226 29.2153 11.3623 26.8435C5.85243 23.3142 4.03947 16.0133 7.35178 10.2964C10.7019 4.51349 18.0662 2.47297 23.9012 5.65089C23.9318 5.66757 23.9621 5.68482 23.9925 5.70185C24.0358 5.7258 24.0789 5.75009 24.1219 5.7746C25.9221 6.81246 27.483 8.31873 28.6008 10.24C32.017 16.1121 30.0192 23.6688 24.1472 27.0849Z" fill="#FF5042"/>
<path d="M23.2093 7.50284C23.1922 7.49296 23.175 7.48377 23.158 7.47401C20.041 5.67002 16.0682 5.53813 12.7387 7.47526C7.79773 10.3498 6.11644 16.708 8.99097 21.6488C9.86811 23.1566 11.0701 24.3602 12.4568 25.2239C12.5751 25.2992 12.6948 25.3721 12.816 25.4426C17.7622 28.3082 24.1171 26.6154 26.9825 21.6694C29.8478 16.7231 28.1555 10.3684 23.2093 7.50284ZM24.4467 15.5888L22.7147 17.2769C22.1783 17.7997 21.8431 18.8316 21.9698 19.57L22.3787 21.9536C22.5053 22.6919 22.0665 23.0107 21.4035 22.6622L19.2627 21.5367C18.5996 21.1881 17.5147 21.1881 16.8516 21.5367L14.711 22.6622C14.0479 23.0107 13.609 22.6919 13.7357 21.9536L14.1445 19.57C14.2712 18.8316 13.9359 17.7997 13.3995 17.2769L11.6677 15.5888C11.1311 15.066 11.2989 14.55 12.0402 14.4422L14.4335 14.0944C15.1747 13.9867 16.0526 13.3489 16.3841 12.6772L17.4544 10.5086C17.786 9.83688 18.3285 9.83688 18.6599 10.5086L19.7303 12.6772C20.0619 13.3489 20.9396 13.9867 21.681 14.0944L24.0743 14.4422C24.8154 14.55 24.9831 15.066 24.4467 15.5888Z" fill="#FF5042"/>
</svg>
