<svg width="42" height="34" viewBox="0 0 42 34" fill="none" xmlns="http://www.w3.org/2000/svg">
<path d="M42 24.5532V28.3332C42 28.8624 41.6724 29.3328 41.1768 29.5176C38.0199 30.6782 34.7011 31.3386 31.3404 31.4748C31.9279 30.8489 32.2554 30.0232 32.2569 29.1648V24.3684C32.2569 22.286 31.5261 20.2608 30.1905 18.6564C31.5142 18.6125 32.803 18.2212 33.9276 17.5216C37.464 18.3456 42 20.2944 42 24.5532ZM29.9376 5.2248C33.18 5.2248 35.8092 7.8624 35.8092 11.1048C35.8092 14.3472 33.18 16.9848 29.9376 16.9848C26.6868 16.9848 24.0576 14.3472 24.0576 11.1048C24.0576 7.8624 26.6868 5.2248 29.9376 5.2248ZM22.848 7.56C22.848 11.7264 19.4628 15.1116 15.2964 15.1116C11.1216 15.1116 7.74481 11.7264 7.74481 7.56C7.74481 3.3852 11.1216 0 15.2964 0C19.4628 0 22.848 3.3852 22.848 7.56Z" fill="#FF5042"/>
<path d="M30.576 24.3685V29.1649C30.5764 29.5093 30.471 29.8455 30.274 30.1279C30.0771 30.4104 29.798 30.6255 29.4748 30.7441C20.3188 34.1041 10.264 34.1041 1.09956 30.7441C0.776595 30.6252 0.49794 30.41 0.301283 30.1276C0.104627 29.8451 -0.000541945 29.5091 2.10017e-06 29.1649V24.3685C0.0168021 18.8749 5.7792 16.4389 10.3404 15.3469C13.3644 17.2705 17.2284 17.2705 20.2524 15.3469C24.7968 16.4389 30.576 18.8833 30.576 24.3685Z" fill="#FF5042"/>
</svg>
