<svg width="24" height="24" viewBox="0 0 24 24" fill="none" xmlns="http://www.w3.org/2000/svg">
<g id="Container">
<g id="Calendar">
<path id="Vector" d="M20.91 11.1201V6.7301C20.91 5.9101 20.29 4.9801 19.52 4.6701L13.95 2.3901C12.6965 1.88006 11.2934 1.88006 10.04 2.3901L4.46997 4.6701C3.70997 4.9801 3.08997 5.9101 3.08997 6.7301V11.1201C3.08997 16.0101 6.63997 20.5901 11.49 21.9301C11.82 22.0201 12.18 22.0201 12.51 21.9301C17.36 20.5901 20.91 16.0101 20.91 11.1201ZM12.75 12.8701V15.5001C12.75 15.9101 12.41 16.2501 12 16.2501C11.59 16.2501 11.25 15.9101 11.25 15.5001V12.8701C10.7446 12.7117 10.3028 12.3967 9.9882 11.9707C9.67363 11.5447 9.50265 11.0297 9.49997 10.5001C9.49997 9.83706 9.76336 9.20117 10.2322 8.73233C10.701 8.26349 11.3369 8.0001 12 8.0001C12.663 8.0001 13.2989 8.26349 13.7677 8.73233C14.2366 9.20117 14.5 9.83706 14.5 10.5001C14.5 11.6201 13.76 12.5501 12.75 12.8701Z" fill="#FF5042"/>
</g>
</g>
</svg>
