<svg width="24" height="24" viewBox="0 0 24 24" fill="none" xmlns="http://www.w3.org/2000/svg">
<g clip-path="url(#clip0_55_1341)">
<path d="M23.4682 13.4003L23.0169 12.7823C22.6442 12.2722 22.6393 11.5806 23.0022 11.0607L23.4436 10.4378C23.9537 9.71195 23.7183 8.70649 22.9335 8.28469L22.2616 7.92174C21.7025 7.62255 21.3984 6.99966 21.5014 6.37676L21.6289 5.62144C21.776 4.7484 21.1237 3.93913 20.236 3.90479L19.4708 3.87046C18.8381 3.84594 18.2937 3.41432 18.1171 2.80614L17.9062 2.07044C17.661 1.21702 16.7242 0.775598 15.9051 1.12874L15.2037 1.43283C14.6201 1.68297 13.9481 1.53583 13.5214 1.06007L13.0113 0.491125C12.4179 -0.171009 11.383 -0.161199 10.7993 0.505839L10.299 1.08459C9.88215 1.56035 9.2102 1.7222 8.62654 1.48187L7.92027 1.1925C7.10119 0.854073 6.16929 1.31021 5.93387 2.16853L5.73278 2.90424C5.57092 3.52223 5.03631 3.95875 4.4036 3.99308L3.63847 4.03722C2.75072 4.08627 2.11311 4.90535 2.27496 5.77348L2.4123 6.5239C2.5251 7.1468 2.23082 7.7746 1.67659 8.07869L1.00955 8.45145C0.234611 8.88306 0.00899477 9.89343 0.533797 10.6095L0.985029 11.2275C1.35779 11.7376 1.36269 12.4292 0.999743 12.9491L0.558321 13.5719C0.0482323 14.2978 0.283658 15.3033 1.06841 15.7251L1.74035 16.0881C2.29949 16.3872 2.60358 17.0101 2.50058 17.633L2.36815 18.3835C2.22101 19.2565 2.87334 20.0658 3.76109 20.1001L4.52622 20.1344C5.15893 20.159 5.70335 20.5906 5.87992 21.1988L6.09082 21.9345C6.33605 22.7879 7.27285 23.2293 8.09193 22.8762L8.79331 22.5721C9.37696 22.3219 10.0489 22.4691 10.4756 22.9399L10.9857 23.5089C11.5792 24.171 12.6141 24.1612 13.1977 23.4941L13.698 22.9154C14.1149 22.4396 14.7868 22.2778 15.3705 22.5181L16.0768 22.8075C16.8959 23.1459 17.8278 22.6898 18.0632 21.8315L18.2643 21.0958C18.431 20.4876 18.9706 20.0511 19.6033 20.0118L20.3684 19.9677C21.2561 19.9186 21.8937 19.0995 21.7319 18.2314L21.5946 17.481C21.4818 16.8581 21.776 16.2303 22.3303 15.9262L22.9973 15.5534C23.7673 15.1316 23.9881 14.1164 23.4682 13.4003ZM12.001 19.7519C7.72408 19.7519 4.25646 16.2842 4.25646 12.0074C4.25646 7.73046 7.72408 4.26284 12.001 4.26284C16.2779 4.26284 19.7455 7.73046 19.7455 12.0074C19.7455 16.2842 16.2779 19.7519 12.001 19.7519Z" fill="#FF5042"/>
<path d="M11.0102 12.2134L10.3236 11.5218C9.91648 11.1098 9.24944 11.1098 8.83744 11.5169C8.42545 11.924 8.42545 12.5911 8.83254 13.0031L9.5192 13.6946L10.2843 14.4597C10.6816 14.8619 11.329 14.8619 11.7312 14.4647L12.4963 13.7044L15.1645 11.051C15.5765 10.6439 15.5765 9.97686 15.1694 9.56486C14.7623 9.15287 14.0953 9.15287 13.6833 9.55996L11.0102 12.2134Z" fill="#FF5042"/>
</g>
<defs>
<clipPath id="clip0_55_1341">
<rect width="24" height="24" fill="white"/>
</clipPath>
</defs>
</svg>
