<svg width="24" height="24" viewBox="0 0 24 24" fill="none" xmlns="http://www.w3.org/2000/svg">
<g clip-path="url(#clip0_121_3564)">
<path d="M23.25 10.125V13.875C23.25 14.9093 22.4093 15.75 21.375 15.75H20.865C20.1472 19.9995 16.4513 23.25 12 23.25C11.8011 23.25 11.6103 23.171 11.4697 23.0303C11.329 22.8897 11.25 22.6989 11.25 22.5C11.25 22.3011 11.329 22.1103 11.4697 21.9697C11.6103 21.829 11.8011 21.75 12 21.75C16.1355 21.75 19.5 18.3855 19.5 14.25V9.75C19.5 5.6145 16.1355 2.25 12 2.25C7.8645 2.25 4.5 5.6145 4.5 9.75V15C4.5 15.1989 4.42098 15.3897 4.28033 15.5303C4.13968 15.671 3.94891 15.75 3.75 15.75H2.625C2.12784 15.7496 1.65116 15.5519 1.29961 15.2004C0.948069 14.8488 0.750397 14.3722 0.75 13.875V10.125C0.75 9.09075 1.59075 8.25 2.625 8.25H3.135C3.8535 4.0005 7.5495 0.75 12 0.75C16.4505 0.75 20.1472 4.0005 20.865 8.25H21.375C22.4093 8.25 23.25 9.09075 23.25 10.125ZM12 3.75C8.69175 3.75 6 6.44175 6 9.75V13.5C6 16.8083 8.69175 19.5 12 19.5C15.3082 19.5 18 16.8083 18 13.5V9.75C18 6.44175 15.3082 3.75 12 3.75Z" fill="#FF5042"/>
</g>
<defs>
<clipPath id="clip0_121_3564">
<rect width="24" height="24" fill="white"/>
</clipPath>
</defs>
</svg>
