<svg width="28" height="29" viewBox="0 0 28 29" fill="none" xmlns="http://www.w3.org/2000/svg">
<path d="M6.41718 8.18457C5.12773 8.84122 3.93517 9.6779 3.17585 10.252C2.63128 10.6638 2.33334 11.3133 2.33334 11.996V23.277C2.33334 24.2727 3.53256 24.8501 4.35899 24.2947C5.77005 23.3465 7.68682 22.2697 9.33334 22.0854C11.269 21.8688 12.6345 22.9075 14 23.9463C15.3655 24.9851 16.731 26.0239 18.6667 25.8072C20.8452 25.5634 23.4967 23.7573 24.8242 22.7535C25.3687 22.3418 25.6667 21.6923 25.6667 21.0096V9.72857C25.6667 8.73287 24.4675 8.15549 23.641 8.71085C22.9628 9.16662 22.1677 9.65209 21.342 10.0539C20.9988 11.5438 20.3181 13.0999 19.4855 14.4042C18.8674 15.3724 18.1083 16.2945 17.2339 16.9927C16.3699 17.6827 15.2651 18.2528 14 18.2528C12.735 18.2528 11.6301 17.6827 10.7661 16.9927C9.89168 16.2945 9.13258 15.3724 8.51451 14.4042C7.32202 12.5361 6.44111 10.1513 6.41718 8.18457Z" fill="#FFEEEC"/>
<path fill-rule="evenodd" clip-rule="evenodd" d="M14 16.5029C16.9167 16.5029 19.8334 11.1957 19.8334 8.10293C19.8334 5.01014 17.2217 2.50293 14 2.50293C10.7784 2.50293 8.16669 5.01014 8.16669 8.10293C8.16669 11.1957 11.0834 16.5029 14 16.5029ZM14 9.50293C14.9665 9.50293 15.75 8.71943 15.75 7.75293C15.75 6.78643 14.9665 6.00293 14 6.00293C13.0335 6.00293 12.25 6.78643 12.25 7.75293C12.25 8.71943 13.0335 9.50293 14 9.50293Z" fill="#FF5042"/>
</svg>
