<svg width="231" height="36" viewBox="0 0 231 36" fill="none" xmlns="http://www.w3.org/2000/svg">
<path d="M231 22.365V25.7772H226.48V22.365H231Z" fill="#FF5042"/>
<path d="M61.3193 18.8331C61.1397 20.3895 60.591 21.7165 59.6731 22.814C58.7552 23.9114 57.508 24.7495 55.9316 25.3282C54.3553 25.9069 52.4796 26.1962 50.3046 26.1962C48.4887 26.1962 46.8225 25.9867 45.306 25.5676C43.8095 25.1486 42.5124 24.52 41.4149 23.682C40.3374 22.8439 39.4993 21.8063 38.9007 20.5691C38.3021 19.312 38.0028 17.8454 38.0028 16.1692C38.0028 14.493 38.3021 13.0264 38.9007 11.7693C39.4993 10.5122 40.3374 9.46458 41.4149 8.62651C42.5124 7.76847 43.8095 7.12994 45.306 6.7109C46.8225 6.27191 48.4887 6.05241 50.3046 6.05241C52.4796 6.05241 54.3553 6.35172 55.9316 6.95035C57.528 7.54898 58.7851 8.40701 59.703 9.52445C60.6209 10.6219 61.1596 11.9589 61.3193 13.5352H57.3683C57.1089 12.6972 56.6699 11.9788 56.0514 11.3802C55.4527 10.7616 54.6745 10.2927 53.7167 9.97342C52.7589 9.65415 51.6215 9.49451 50.3046 9.49451C48.6683 9.49451 47.2316 9.75392 45.9944 10.2727C44.7573 10.7716 43.7995 11.5199 43.121 12.5176C42.4426 13.4953 42.1034 14.7125 42.1034 16.1692C42.1034 17.6059 42.4426 18.8131 43.121 19.7909C43.7995 20.7686 44.7573 21.5169 45.9944 22.0357C47.2316 22.5346 48.6683 22.784 50.3046 22.784C51.6215 22.784 52.7489 22.6244 53.6868 22.3051C54.6446 21.9859 55.4228 21.5269 56.0214 20.9283C56.64 20.3297 57.089 19.6313 57.3683 18.8331H61.3193Z" fill="#140A09"/>
<path d="M72.3869 26.1363C70.9102 26.1363 69.5633 25.8171 68.3461 25.1785C67.1489 24.52 66.1911 23.6121 65.4727 22.4548C64.7743 21.2775 64.4251 19.9206 64.4251 18.3841C64.4251 16.8077 64.7843 15.4409 65.5027 14.2835C66.221 13.1262 67.1888 12.2282 68.406 11.5897C69.6432 10.9312 71.0399 10.602 72.5964 10.602C74.3124 10.602 75.6893 10.9512 76.7269 11.6496C77.7845 12.328 78.5527 13.2559 79.0316 14.4332C79.5105 15.6105 79.75 16.9275 79.75 18.3841C79.75 19.2621 79.6103 20.16 79.3309 21.0779C79.0516 21.9759 78.6225 22.814 78.0439 23.5922C77.4652 24.3504 76.7069 24.969 75.7691 25.4479C74.8312 25.9069 73.7038 26.1363 72.3869 26.1363ZM73.644 23.1432C74.8213 23.1432 75.8389 22.9437 76.697 22.5446C77.555 22.1455 78.2135 21.5868 78.6724 20.8684C79.1314 20.1501 79.3609 19.322 79.3609 18.3841C79.3609 17.3665 79.1214 16.5084 78.6425 15.81C78.1836 15.0917 77.5251 14.5529 76.667 14.1937C75.829 13.8146 74.8213 13.625 73.644 13.625C71.9878 13.625 70.7007 14.064 69.7828 14.942C68.8649 15.8 68.406 16.9474 68.406 18.3841C68.406 19.3419 68.6255 20.18 69.0645 20.8984C69.5035 21.5967 70.1121 22.1455 70.8903 22.5446C71.6885 22.9437 72.6064 23.1432 73.644 23.1432ZM79.3609 10.9312H83.2519V25.8071H79.6302C79.6302 25.8071 79.6003 25.6175 79.5404 25.2384C79.5005 24.8393 79.4606 24.3405 79.4207 23.7418C79.3808 23.1432 79.3609 22.5546 79.3609 21.9759V10.9312Z" fill="#140A09"/>
<path d="M87.2225 10.9312H91.1136V25.8071H87.2225V10.9312ZM96.8305 14.1339C95.713 14.1339 94.7452 14.3534 93.9271 14.7924C93.109 15.2114 92.4505 15.7302 91.9517 16.3488C91.4528 16.9674 91.1036 17.566 90.9041 18.1447L90.8741 16.4984C90.8941 16.259 90.9739 15.9098 91.1136 15.4508C91.2533 14.9719 91.4628 14.4631 91.7421 13.9244C92.0215 13.3656 92.3906 12.8368 92.8496 12.338C93.3085 11.8192 93.8673 11.4001 94.5257 11.0809C95.1842 10.7616 95.9525 10.602 96.8305 10.602V14.1339Z" fill="#140A09"/>
<path d="M107.108 23.5323C105.492 23.5323 104.065 23.2929 102.828 22.814C101.611 22.3151 100.663 21.5868 99.9842 20.629C99.3058 19.6712 98.9666 18.5138 98.9666 17.1569C98.9666 15.82 99.2958 14.6627 99.9543 13.6849C100.613 12.7071 101.551 11.9489 102.768 11.4101C104.005 10.8714 105.452 10.602 107.108 10.602C107.567 10.602 108.006 10.6319 108.425 10.6918C108.864 10.7516 109.293 10.8314 109.712 10.9312L117.225 10.9611V13.8944C116.207 13.9144 115.169 13.7946 114.112 13.5352C113.074 13.2559 112.156 12.9566 111.358 12.6373L111.268 12.4278C111.947 12.7471 112.585 13.1461 113.184 13.625C113.783 14.084 114.261 14.6227 114.621 15.2413C115 15.84 115.189 16.5384 115.189 17.3365C115.189 18.6335 114.86 19.751 114.202 20.6888C113.543 21.6067 112.605 22.3151 111.388 22.814C110.191 23.2929 108.764 23.5323 107.108 23.5323ZM112.106 31.943V31.2247C112.106 30.3068 111.807 29.6682 111.208 29.3091C110.63 28.9499 109.832 28.7703 108.814 28.7703H104.175C103.277 28.7703 102.518 28.7005 101.9 28.5608C101.301 28.4211 100.822 28.2215 100.463 27.9621C100.104 27.7027 99.8446 27.3934 99.6849 27.0343C99.5253 26.6951 99.4455 26.3259 99.4455 25.9268C99.4455 25.1286 99.7049 24.53 100.224 24.1309C100.742 23.7119 101.441 23.4325 102.319 23.2929C103.197 23.1532 104.165 23.1232 105.222 23.2031L107.108 23.5323C105.851 23.5722 104.913 23.682 104.294 23.8616C103.696 24.0212 103.396 24.3504 103.396 24.8493C103.396 25.1486 103.516 25.388 103.756 25.5676C103.995 25.7273 104.334 25.8071 104.773 25.8071H109.652C110.989 25.8071 112.126 25.9468 113.064 26.2261C114.022 26.5254 114.75 27.0143 115.249 27.6928C115.748 28.3912 115.998 29.339 115.998 30.5362V31.943H112.106ZM107.108 20.7188C107.966 20.7188 108.714 20.5791 109.353 20.2997C110.011 20.0204 110.52 19.6213 110.879 19.1025C111.238 18.5637 111.418 17.9252 111.418 17.1869C111.418 16.4286 111.238 15.7801 110.879 15.2413C110.52 14.7026 110.021 14.2935 109.383 14.0141C108.744 13.7148 107.986 13.5652 107.108 13.5652C106.25 13.5652 105.492 13.7148 104.833 14.0141C104.175 14.2935 103.666 14.7026 103.307 15.2413C102.947 15.7801 102.768 16.4286 102.768 17.1869C102.768 17.9252 102.947 18.5637 103.307 19.1025C103.666 19.6213 104.165 20.0204 104.803 20.2997C105.462 20.5791 106.23 20.7188 107.108 20.7188Z" fill="#140A09"/>
<path d="M128.722 26.1663C126.846 26.1663 125.19 25.8669 123.753 25.2683C122.336 24.6697 121.229 23.8017 120.431 22.6643C119.632 21.507 119.233 20.0902 119.233 18.4141C119.233 16.7379 119.632 15.3211 120.431 14.1638C121.229 12.9865 122.336 12.0985 123.753 11.4999C125.19 10.9013 126.846 10.602 128.722 10.602C130.597 10.602 132.234 10.9013 133.63 11.4999C135.047 12.0985 136.155 12.9865 136.953 14.1638C137.751 15.3211 138.15 16.7379 138.15 18.4141C138.15 20.0902 137.751 21.507 136.953 22.6643C136.155 23.8017 135.047 24.6697 133.63 25.2683C132.234 25.8669 130.597 26.1663 128.722 26.1663ZM128.722 23.1731C129.759 23.1731 130.687 22.9935 131.505 22.6344C132.343 22.2552 133.002 21.7165 133.481 21.0181C133.96 20.2997 134.199 19.4317 134.199 18.4141C134.199 17.3964 133.96 16.5284 133.481 15.81C133.002 15.0717 132.353 14.513 131.535 14.1339C130.717 13.7547 129.779 13.5652 128.722 13.5652C127.684 13.5652 126.746 13.7547 125.908 14.1339C125.07 14.513 124.402 15.0617 123.903 15.7801C123.424 16.4984 123.184 17.3764 123.184 18.4141C123.184 19.4317 123.424 20.2997 123.903 21.0181C124.382 21.7165 125.04 22.2552 125.878 22.6344C126.716 22.9935 127.664 23.1731 128.722 23.1731Z" fill="#140A09"/>
<path d="M152.311 26.1663C150.994 26.1663 149.866 25.9368 148.928 25.4778C148.01 24.9989 147.262 24.3804 146.683 23.6221C146.105 22.8439 145.676 21.9958 145.396 21.0779C145.117 20.16 144.977 19.2621 144.977 18.3841C144.977 17.2866 145.107 16.269 145.366 15.3311C145.646 14.3933 146.075 13.5752 146.653 12.8768C147.232 12.1584 147.98 11.5997 148.898 11.2006C149.836 10.8015 150.974 10.602 152.311 10.602C153.807 10.602 155.154 10.9312 156.351 11.5897C157.548 12.2482 158.496 13.1661 159.195 14.3434C159.913 15.5007 160.272 16.8476 160.272 18.3841C160.272 19.9605 159.913 21.3373 159.195 22.5146C158.476 23.672 157.519 24.5699 156.321 25.2085C155.124 25.847 153.787 26.1663 152.311 26.1663ZM151.053 23.1432C152.111 23.1432 153.029 22.9437 153.807 22.5446C154.605 22.1455 155.214 21.5967 155.633 20.8984C156.072 20.18 156.291 19.3419 156.291 18.3841C156.291 16.9474 155.832 15.7901 154.915 14.9121C154.017 14.0341 152.73 13.5951 151.053 13.5951C149.996 13.5951 149.028 13.7847 148.15 14.1638C147.292 14.5429 146.614 15.0917 146.115 15.81C145.616 16.5084 145.366 17.3665 145.366 18.3841C145.366 19.3419 145.596 20.18 146.055 20.8984C146.514 21.5967 147.172 22.1455 148.03 22.5446C148.888 22.9437 149.896 23.1432 151.053 23.1432ZM141.475 10.9312H145.187L145.366 14.8822V31.7934H141.475V10.9312Z" fill="#140A09"/>
<path d="M172.354 26.1663C170.478 26.1663 168.822 25.8669 167.385 25.2683C165.968 24.6697 164.861 23.8017 164.063 22.6643C163.264 21.507 162.865 20.0902 162.865 18.4141C162.865 16.7379 163.264 15.3211 164.063 14.1638C164.861 12.9865 165.968 12.0985 167.385 11.4999C168.822 10.9013 170.478 10.602 172.354 10.602C174.229 10.602 175.865 10.9013 177.262 11.4999C178.679 12.0985 179.786 12.9865 180.585 14.1638C181.383 15.3211 181.782 16.7379 181.782 18.4141C181.782 20.0902 181.383 21.507 180.585 22.6643C179.786 23.8017 178.679 24.6697 177.262 25.2683C175.865 25.8669 174.229 26.1663 172.354 26.1663ZM172.354 23.1731C173.391 23.1731 174.319 22.9935 175.137 22.6344C175.975 22.2552 176.634 21.7165 177.113 21.0181C177.591 20.2997 177.831 19.4317 177.831 18.4141C177.831 17.3964 177.591 16.5284 177.113 15.81C176.634 15.0717 175.985 14.513 175.167 14.1339C174.349 13.7547 173.411 13.5652 172.354 13.5652C171.316 13.5652 170.378 13.7547 169.54 14.1339C168.702 14.513 168.033 15.0617 167.535 15.7801C167.056 16.4984 166.816 17.3764 166.816 18.4141C166.816 19.4317 167.056 20.2997 167.535 21.0181C168.013 21.7165 168.672 22.2552 169.51 22.6344C170.348 22.9935 171.296 23.1731 172.354 23.1731Z" fill="#140A09"/>
<path d="M189.567 4.40619V7.81836H185.047V4.40619H189.567ZM185.347 10.9312H189.238V25.8071H185.347V10.9312Z" fill="#140A09"/>
<path d="M193.565 10.9312H197.456V25.8071H193.565V10.9312ZM204.37 10.602C205.288 10.602 206.136 10.7217 206.915 10.9611C207.693 11.2006 208.371 11.5698 208.95 12.0686C209.529 12.5675 209.978 13.206 210.297 13.9842C210.616 14.7425 210.776 15.6504 210.776 16.708V25.8071H206.885V17.3964C206.885 16.1393 206.575 15.2214 205.957 14.6427C205.358 14.0441 204.37 13.7448 202.994 13.7448C201.956 13.7448 201.018 13.9443 200.18 14.3434C199.342 14.7425 198.664 15.2513 198.145 15.8699C197.626 16.4685 197.327 17.0971 197.247 17.7556L197.217 16.2291C197.317 15.5307 197.546 14.8522 197.905 14.1937C198.264 13.5352 198.743 12.9366 199.342 12.3979C199.961 11.8391 200.689 11.4001 201.527 11.0809C202.365 10.7616 203.313 10.602 204.37 10.602Z" fill="#140A09"/>
<path d="M213.72 10.9312H225.273V13.9543H213.72V10.9312ZM217.551 6.86056H221.442V25.8071H217.551V6.86056Z" fill="#140A09"/>
<path d="M15.9634 12.6373L0.24942 6.40161L15.9634 0.415344L31.9267 6.40161L15.9634 12.6373Z" fill="url(#paint0_linear_160_59422)"/>
<path d="M0 26.6052V7.64874L14.4668 16.8776V35.5846L0 26.6052Z" fill="url(#paint1_linear_160_59422)"/>
<path d="M31.9268 26.6052V7.64874L17.46 16.8776V35.5846L31.9268 26.6052Z" fill="url(#paint2_linear_160_59422)"/>
<defs>
<linearGradient id="paint0_linear_160_59422" x1="16.0881" y1="0.415344" x2="16.0881" y2="12.6373" gradientUnits="userSpaceOnUse">
<stop stop-color="#FF5A4D"/>
<stop offset="1" stop-color="#FF3828"/>
</linearGradient>
<linearGradient id="paint1_linear_160_59422" x1="7.2334" y1="7.64874" x2="7.2334" y2="35.5846" gradientUnits="userSpaceOnUse">
<stop stop-color="#FF5A4D"/>
<stop offset="1" stop-color="#FF3828"/>
</linearGradient>
<linearGradient id="paint2_linear_160_59422" x1="24.6934" y1="7.64874" x2="24.6934" y2="35.5846" gradientUnits="userSpaceOnUse">
<stop stop-color="#FF5A4D"/>
<stop offset="1" stop-color="#FF3828"/>
</linearGradient>
</defs>
</svg>
