<svg width="231" height="36" viewBox="0 0 231 36" fill="none" xmlns="http://www.w3.org/2000/svg">
<path d="M231 21.9497V25.3619H226.48V21.9497H231Z" fill="#FF5042"/>
<path d="M61.3193 18.4176C61.1397 19.9741 60.591 21.301 59.6731 22.3985C58.7552 23.496 57.508 24.334 55.9316 24.9127C54.3553 25.4914 52.4796 25.7807 50.3046 25.7807C48.4887 25.7807 46.8225 25.5712 45.306 25.1522C43.8095 24.7331 42.5124 24.1046 41.4149 23.2665C40.3374 22.4284 39.4993 21.3908 38.9007 20.1536C38.3021 18.8965 38.0028 17.4299 38.0028 15.7537C38.0028 14.0776 38.3021 12.6109 38.9007 11.3538C39.4993 10.0967 40.3374 9.04912 41.4149 8.21104C42.5124 7.35301 43.8095 6.71447 45.306 6.29544C46.8225 5.85644 48.4887 5.63695 50.3046 5.63695C52.4796 5.63695 54.3553 5.93626 55.9316 6.53488C57.528 7.13351 58.7851 7.99154 59.703 9.10898C60.6209 10.2065 61.1596 11.5434 61.3193 13.1198H57.3683C57.1089 12.2817 56.6699 11.5633 56.0514 10.9647C55.4527 10.3461 54.6745 9.87722 53.7167 9.55795C52.7589 9.23868 51.6215 9.07905 50.3046 9.07905C48.6683 9.07905 47.2316 9.33845 45.9944 9.85726C44.7573 10.3561 43.7995 11.1044 43.121 12.1021C42.4426 13.0799 42.1034 14.2971 42.1034 15.7537C42.1034 17.1904 42.4426 18.3977 43.121 19.3754C43.7995 20.3532 44.7573 21.1015 45.9944 21.6203C47.2316 22.1191 48.6683 22.3686 50.3046 22.3686C51.6215 22.3686 52.7489 22.2089 53.6868 21.8897C54.6446 21.5704 55.4228 21.1114 56.0214 20.5128C56.64 19.9142 57.089 19.2158 57.3683 18.4176H61.3193Z" fill="white"/>
<path d="M72.3869 25.7209C70.9102 25.7209 69.5633 25.4016 68.3461 24.7631C67.1489 24.1046 66.1911 23.1967 65.4727 22.0393C64.7743 20.862 64.4251 19.5051 64.4251 17.9687C64.4251 16.3923 64.7843 15.0254 65.5027 13.8681C66.221 12.7107 67.1888 11.8128 68.406 11.1742C69.6432 10.5158 71.0399 10.1865 72.5964 10.1865C74.3124 10.1865 75.6893 10.5357 76.7269 11.2341C77.7845 11.9125 78.5527 12.8404 79.0316 14.0177C79.5105 15.195 79.75 16.512 79.75 17.9687C79.75 18.8466 79.6103 19.7446 79.3309 20.6625C79.0516 21.5604 78.6226 22.3985 78.0439 23.1767C77.4652 23.935 76.7069 24.5535 75.7691 25.0324C74.8312 25.4914 73.7038 25.7209 72.3869 25.7209ZM73.644 22.7277C74.8213 22.7277 75.8389 22.5282 76.697 22.1291C77.555 21.73 78.2135 21.1713 78.6724 20.453C79.1314 19.7346 79.3609 18.9065 79.3609 17.9687C79.3609 16.951 79.1214 16.093 78.6425 15.3946C78.1836 14.6762 77.5251 14.1374 76.667 13.7783C75.829 13.3991 74.8213 13.2096 73.644 13.2096C71.9878 13.2096 70.7007 13.6486 69.7828 14.5266C68.8649 15.3846 68.406 16.5319 68.406 17.9687C68.406 18.9265 68.6255 19.7645 69.0645 20.4829C69.5035 21.1813 70.1121 21.73 70.8903 22.1291C71.6885 22.5282 72.6064 22.7277 73.644 22.7277ZM79.3609 10.5158H83.2519V25.3916H79.6302C79.6302 25.3916 79.6003 25.2021 79.5404 24.8229C79.5005 24.4238 79.4606 23.925 79.4207 23.3264C79.3808 22.7277 79.3609 22.1391 79.3609 21.5604V10.5158Z" fill="white"/>
<path d="M87.2225 10.5158H91.1136V25.3916H87.2225V10.5158ZM96.8305 13.7184C95.713 13.7184 94.7452 13.9379 93.9271 14.3769C93.109 14.7959 92.4505 15.3147 91.9517 15.9333C91.4528 16.5519 91.1036 17.1505 90.9041 17.7292L90.8741 16.083C90.8941 15.8435 90.9739 15.4943 91.1136 15.0354C91.2533 14.5565 91.4628 14.0476 91.7421 13.5089C92.0215 12.9502 92.3906 12.4214 92.8496 11.9225C93.3085 11.4037 93.8673 10.9847 94.5257 10.6654C95.1842 10.3461 95.9525 10.1865 96.8305 10.1865V13.7184Z" fill="white"/>
<path d="M107.108 23.1168C105.492 23.1168 104.065 22.8774 102.828 22.3985C101.611 21.8996 100.663 21.1713 99.9842 20.2135C99.3058 19.2557 98.9666 18.0984 98.9666 16.7415C98.9666 15.4045 99.2958 14.2472 99.9543 13.2694C100.613 12.2917 101.551 11.5334 102.768 10.9947C104.005 10.4559 105.452 10.1865 107.108 10.1865C107.567 10.1865 108.006 10.2164 108.425 10.2763C108.864 10.3362 109.293 10.416 109.712 10.5158L117.225 10.5457V13.479C116.207 13.4989 115.169 13.3792 114.112 13.1198C113.074 12.8404 112.156 12.5411 111.358 12.2218L111.268 12.0123C111.947 12.3316 112.585 12.7307 113.184 13.2096C113.783 13.6685 114.261 14.2073 114.621 14.8259C115 15.4245 115.189 16.1229 115.189 16.9211C115.189 18.2181 114.86 19.3355 114.202 20.2734C113.543 21.1913 112.605 21.8996 111.388 22.3985C110.191 22.8774 108.764 23.1168 107.108 23.1168ZM112.106 31.5275V30.8092C112.106 29.8913 111.807 29.2528 111.208 28.8936C110.63 28.5344 109.832 28.3548 108.814 28.3548H104.175C103.277 28.3548 102.518 28.285 101.9 28.1453C101.301 28.0056 100.822 27.8061 100.463 27.5467C100.104 27.2873 99.8446 26.978 99.6849 26.6188C99.5253 26.2796 99.4455 25.9104 99.4455 25.5113C99.4455 24.7132 99.7049 24.1146 100.224 23.7155C100.743 23.2964 101.441 23.0171 102.319 22.8774C103.197 22.7377 104.165 22.7078 105.222 22.7876L107.108 23.1168C105.851 23.1567 104.913 23.2665 104.294 23.4461C103.696 23.6057 103.396 23.935 103.396 24.4338C103.396 24.7331 103.516 24.9726 103.756 25.1522C103.995 25.3118 104.334 25.3916 104.773 25.3916H109.652C110.989 25.3916 112.126 25.5313 113.064 25.8107C114.022 26.11 114.75 26.5989 115.249 27.2773C115.748 27.9757 115.998 28.9235 115.998 30.1208V31.5275H112.106ZM107.108 20.3033C107.966 20.3033 108.714 20.1636 109.353 19.8843C110.011 19.6049 110.52 19.2058 110.879 18.687C111.238 18.1482 111.418 17.5097 111.418 16.7714C111.418 16.0131 111.238 15.3646 110.879 14.8259C110.52 14.2871 110.021 13.878 109.383 13.5987C108.744 13.2994 107.986 13.1497 107.108 13.1497C106.25 13.1497 105.492 13.2994 104.833 13.5987C104.175 13.878 103.666 14.2871 103.307 14.8259C102.947 15.3646 102.768 16.0131 102.768 16.7714C102.768 17.5097 102.947 18.1482 103.307 18.687C103.666 19.2058 104.165 19.6049 104.803 19.8843C105.462 20.1636 106.23 20.3033 107.108 20.3033Z" fill="white"/>
<path d="M128.722 25.7508C126.846 25.7508 125.19 25.4515 123.753 24.8529C122.336 24.2542 121.229 23.3862 120.431 22.2488C119.632 21.0915 119.233 19.6747 119.233 17.9986C119.233 16.3224 119.632 14.9057 120.431 13.7483C121.229 12.571 122.336 11.6831 123.753 11.0844C125.19 10.4858 126.846 10.1865 128.722 10.1865C130.597 10.1865 132.234 10.4858 133.63 11.0844C135.047 11.6831 136.155 12.571 136.953 13.7483C137.751 14.9057 138.15 16.3224 138.15 17.9986C138.15 19.6747 137.751 21.0915 136.953 22.2488C136.155 23.3862 135.047 24.2542 133.63 24.8529C132.234 25.4515 130.597 25.7508 128.722 25.7508ZM128.722 22.7577C129.759 22.7577 130.687 22.5781 131.505 22.2189C132.343 21.8398 133.002 21.301 133.481 20.6026C133.96 19.8843 134.199 19.0162 134.199 17.9986C134.199 16.9809 133.96 16.1129 133.481 15.3946C133.002 14.6563 132.353 14.0975 131.535 13.7184C130.717 13.3393 129.779 13.1497 128.722 13.1497C127.684 13.1497 126.746 13.3393 125.908 13.7184C125.07 14.0975 124.402 14.6463 123.903 15.3646C123.424 16.083 123.184 16.961 123.184 17.9986C123.184 19.0162 123.424 19.8843 123.903 20.6026C124.382 21.301 125.04 21.8398 125.878 22.2189C126.716 22.5781 127.664 22.7577 128.722 22.7577Z" fill="white"/>
<path d="M152.311 25.7508C150.994 25.7508 149.866 25.5213 148.928 25.0624C148.01 24.5835 147.262 23.9649 146.683 23.2066C146.105 22.4284 145.676 21.5804 145.396 20.6625C145.117 19.7446 144.977 18.8466 144.977 17.9687C144.977 16.8712 145.107 15.8535 145.366 14.9157C145.646 13.9778 146.075 13.1597 146.653 12.4613C147.232 11.7429 147.98 11.1842 148.898 10.7851C149.836 10.386 150.974 10.1865 152.311 10.1865C153.807 10.1865 155.154 10.5158 156.351 11.1742C157.548 11.8327 158.496 12.7506 159.195 13.9279C159.913 15.0853 160.272 16.4322 160.272 17.9687C160.272 19.545 159.913 20.9219 159.195 22.0992C158.476 23.2565 157.519 24.1545 156.321 24.793C155.124 25.4315 153.787 25.7508 152.311 25.7508ZM151.053 22.7277C152.111 22.7277 153.029 22.5282 153.807 22.1291C154.605 21.73 155.214 21.1813 155.633 20.4829C156.072 19.7645 156.291 18.9265 156.291 17.9687C156.291 16.5319 155.832 15.3746 154.915 14.4966C154.017 13.6186 152.73 13.1796 151.053 13.1796C149.996 13.1796 149.028 13.3692 148.15 13.7483C147.292 14.1275 146.614 14.6762 146.115 15.3946C145.616 16.093 145.366 16.951 145.366 17.9687C145.366 18.9265 145.596 19.7645 146.055 20.4829C146.514 21.1813 147.172 21.73 148.03 22.1291C148.888 22.5282 149.896 22.7277 151.053 22.7277ZM141.475 10.5158H145.187L145.366 14.4667V31.3779H141.475V10.5158Z" fill="white"/>
<path d="M172.354 25.7508C170.478 25.7508 168.822 25.4515 167.385 24.8529C165.968 24.2542 164.861 23.3862 164.063 22.2488C163.264 21.0915 162.865 19.6747 162.865 17.9986C162.865 16.3224 163.264 14.9057 164.063 13.7483C164.861 12.571 165.968 11.6831 167.385 11.0844C168.822 10.4858 170.478 10.1865 172.354 10.1865C174.229 10.1865 175.865 10.4858 177.262 11.0844C178.679 11.6831 179.786 12.571 180.585 13.7483C181.383 14.9057 181.782 16.3224 181.782 17.9986C181.782 19.6747 181.383 21.0915 180.585 22.2488C179.786 23.3862 178.679 24.2542 177.262 24.8529C175.865 25.4515 174.229 25.7508 172.354 25.7508ZM172.354 22.7577C173.391 22.7577 174.319 22.5781 175.137 22.2189C175.975 21.8398 176.634 21.301 177.113 20.6026C177.591 19.8843 177.831 19.0162 177.831 17.9986C177.831 16.9809 177.591 16.1129 177.113 15.3946C176.634 14.6563 175.985 14.0975 175.167 13.7184C174.349 13.3393 173.411 13.1497 172.354 13.1497C171.316 13.1497 170.378 13.3393 169.54 13.7184C168.702 14.0975 168.033 14.6463 167.535 15.3646C167.056 16.083 166.816 16.961 166.816 17.9986C166.816 19.0162 167.056 19.8843 167.535 20.6026C168.013 21.301 168.672 21.8398 169.51 22.2189C170.348 22.5781 171.296 22.7577 172.354 22.7577Z" fill="white"/>
<path d="M189.567 3.99072V7.40289H185.047V3.99072H189.567ZM185.347 10.5158H189.238V25.3916H185.347V10.5158Z" fill="white"/>
<path d="M193.565 10.5158H197.456V25.3916H193.565V10.5158ZM204.37 10.1865C205.288 10.1865 206.136 10.3062 206.915 10.5457C207.693 10.7851 208.371 11.1543 208.95 11.6531C209.529 12.152 209.978 12.7905 210.297 13.5687C210.616 14.327 210.776 15.2349 210.776 16.2925V25.3916H206.885V16.9809C206.885 15.7238 206.575 14.8059 205.957 14.2272C205.358 13.6286 204.37 13.3293 202.994 13.3293C201.956 13.3293 201.018 13.5288 200.18 13.9279C199.342 14.327 198.664 14.8358 198.145 15.4544C197.626 16.053 197.327 16.6816 197.247 17.3401L197.217 15.8136C197.317 15.1152 197.546 14.4368 197.905 13.7783C198.264 13.1198 198.743 12.5212 199.342 11.9824C199.961 11.4237 200.689 10.9847 201.527 10.6654C202.365 10.3461 203.313 10.1865 204.37 10.1865Z" fill="white"/>
<path d="M213.72 10.5158H225.273V13.5388H213.72V10.5158ZM217.551 6.44509H221.442V25.3916H217.551V6.44509Z" fill="white"/>
<path d="M15.9634 12.222L0.24942 5.98627L15.9634 0L31.9267 5.98627L15.9634 12.222Z" fill="url(#paint0_linear_162_59886)"/>
<path d="M0 26.1899V7.2334L14.4668 16.4622V35.1693L0 26.1899Z" fill="url(#paint1_linear_162_59886)"/>
<path d="M31.9268 26.1899V7.2334L17.46 16.4622V35.1693L31.9268 26.1899Z" fill="url(#paint2_linear_162_59886)"/>
<defs>
<linearGradient id="paint0_linear_162_59886" x1="16.0881" y1="0" x2="16.0881" y2="12.222" gradientUnits="userSpaceOnUse">
<stop stop-color="#FF5A4D"/>
<stop offset="1" stop-color="#FF3828"/>
</linearGradient>
<linearGradient id="paint1_linear_162_59886" x1="7.2334" y1="7.2334" x2="7.2334" y2="35.1693" gradientUnits="userSpaceOnUse">
<stop stop-color="#FF5A4D"/>
<stop offset="1" stop-color="#FF3828"/>
</linearGradient>
<linearGradient id="paint2_linear_162_59886" x1="24.6934" y1="7.2334" x2="24.6934" y2="35.1693" gradientUnits="userSpaceOnUse">
<stop stop-color="#FF5A4D"/>
<stop offset="1" stop-color="#FF3828"/>
</linearGradient>
</defs>
</svg>
