<svg width="38" height="38" viewBox="0 0 38 38" fill="none" xmlns="http://www.w3.org/2000/svg">
<g clip-path="url(#clip0_118_3423)">
<path d="M27.7083 17.4167C22.0337 17.4167 17.4167 22.0337 17.4167 27.7083C17.4167 33.383 22.0337 38 27.7083 38C33.383 38 38 33.383 38 27.7083C38 22.0337 33.383 17.4167 27.7083 17.4167ZM32.1686 25.7149L27.0228 31.6524C26.9159 31.7755 26.7849 31.8754 26.6378 31.9456C26.4907 32.0159 26.3307 32.0552 26.1678 32.0609H26.125C25.9691 32.061 25.8147 32.0303 25.6706 31.9705C25.5266 31.9108 25.3958 31.8231 25.2858 31.7126L22.515 28.9417C22.2922 28.719 22.1671 28.4168 22.1671 28.1018C22.1671 27.7867 22.2922 27.4846 22.515 27.2618C22.7378 27.0391 23.0399 26.9139 23.355 26.9139C23.67 26.9139 23.9722 27.0391 24.1949 27.2618L26.0648 29.1302L30.3747 24.1569C30.5854 23.9341 30.874 23.8014 31.1803 23.7863C31.4865 23.7713 31.7868 23.8752 32.0183 24.0762C32.2498 24.2773 32.3947 24.56 32.4227 24.8654C32.4507 25.1707 32.3597 25.4751 32.1686 25.7149ZM14.5983 -1.05798e-05L6.90334 0.0316561C5.90584 0.0316561 4.97167 0.585823 4.49667 1.45666L0.475006 8.73999L13.8225 8.70832L14.5983 -1.05798e-05ZM31.16 8.67666L27.0908 1.39332C26.6 0.522489 25.6817 -0.0316772 24.6683 -0.0316772L16.9733 -1.05798e-05L17.7808 8.70832L31.16 8.67666Z" fill="#FF5042"/>
<path d="M31.6667 14.8358C30.4158 14.4558 29.0858 14.25 27.7083 14.25C20.2825 14.25 14.25 20.2825 14.25 27.7083C14.25 29.0858 14.4558 30.4317 14.8517 31.6825L2.54916 31.7142H2.53333C1.17166 31.7142 0.0474947 30.59 0.0474947 29.2125L-0.0158386 11.115L14.63 11.0833H17.005L31.6508 11.0358L31.6667 14.8358Z" fill="#FF5042"/>
</g>
<defs>
<clipPath id="clip0_118_3423">
<rect width="38" height="38" fill="white"/>
</clipPath>
</defs>
</svg>
