<svg width="42" height="42" viewBox="0 0 42 42" fill="none" xmlns="http://www.w3.org/2000/svg">
<path d="M22.8341 9.66126L13.3941 4.18096C13.1899 4.06232 12.958 3.99988 12.7218 4C12.5456 3.99983 12.3711 4.03441 12.2082 4.10174C12.0454 4.16907 11.8974 4.26784 11.7728 4.3924L10.6791 5.48599C10.1563 6.00881 10.1563 6.85949 10.6791 7.38231L18.1903 14.8934L22.8341 9.66126ZM32.3382 19.1654L27.1061 23.8091L34.6172 31.3202C34.7414 31.4451 34.8892 31.5442 35.052 31.6116C35.2147 31.679 35.3892 31.7134 35.5654 31.713C35.7415 31.7134 35.916 31.679 36.0787 31.6116C36.2415 31.5441 36.3892 31.4451 36.5135 31.3202L37.6071 30.2267C38.0365 29.7972 38.1235 29.1305 37.8186 28.6053L32.3382 19.1654ZM9.33419 25.3867L5.93156 24.2466C5.79323 24.2 5.64826 24.1762 5.50231 24.1761C5.15347 24.1761 4.81413 24.3131 4.5574 24.5698L4.39212 24.7351C3.86929 25.2579 3.86929 26.1086 4.39212 26.6314L6.95045 29.1897C7.68557 27.8857 8.48101 26.6167 9.33419 25.3867ZM12.7819 35.0212L15.368 37.6073C15.4922 37.7322 15.64 37.8312 15.8027 37.8986C15.9655 37.966 16.14 38.0005 16.3162 38C16.4923 38.0005 16.6668 37.966 16.8295 37.8986C16.9923 37.8312 17.14 37.7322 17.2643 37.6073L17.4295 37.442C17.7916 37.0799 17.9154 36.5533 17.7528 36.0679L16.6056 32.6441C15.3688 33.4957 14.0928 34.2889 12.7819 35.0212ZM19.9346 27.5105L34.7029 14.4027L34.7087 14.3977C36.3732 12.9432 37.7925 9.82084 37.8727 7.43736C37.8993 6.64752 37.7889 5.56409 37.1122 4.88733C36.4933 4.26848 35.5549 4.12578 34.5622 4.12677C34.4908 4.12684 34.6298 4.12451 34.5622 4.12677C32.1787 4.20692 29.0563 5.62631 27.6018 7.2908L27.5967 7.29658L14.37 22.199C11.553 25.3728 9.12455 29.0487 7.27611 32.8687C6.8867 33.6733 7.37598 34.2593 7.53523 34.4197C7.6944 34.5801 8.27679 35.0736 9.08437 34.6903C13.0219 32.8212 16.6749 30.404 19.9346 27.5105Z" fill="#FF5042"/>
</svg>
