<svg width="42" height="42" viewBox="0 0 42 42" fill="none" xmlns="http://www.w3.org/2000/svg">
<g clip-path="url(#clip0_118_3347)">
<path d="M34.65 27.1597C32.6815 27.1597 31.08 28.7616 31.08 30.7297C31.08 32.6982 32.6815 34.2997 34.65 34.2997C36.6181 34.2997 38.22 32.6982 38.22 30.7297C38.22 28.7616 36.6181 27.1597 34.65 27.1597ZM34.65 31.7797C34.0708 31.7797 33.6 31.3089 33.6 30.7297C33.6 30.1506 34.0708 29.6797 34.65 29.6797C35.2291 29.6797 35.7 30.1506 35.7 30.7297C35.7 31.3089 35.2291 31.7797 34.65 31.7797Z" fill="#FF5042"/>
<path d="M34.3081 12.3198H28.14C27.6759 12.3198 27.3 12.6962 27.3 13.1598V29.5398C27.3 30.0035 27.6759 30.3798 28.14 30.3798H29.0309C29.4467 30.3798 29.815 30.0804 29.8687 29.668C30.1984 27.1421 32.2132 25.5755 34.6504 25.5755C37.0876 25.5755 39.1024 27.1421 39.4321 29.668C39.4858 30.0804 39.8537 30.3798 40.27 30.3798H41.1599C41.6236 30.3798 41.9999 30.0035 41.9999 29.5398V21.3498C41.9999 21.1525 41.9306 20.9618 41.8042 20.811L34.9523 12.621C34.8735 12.5267 34.7749 12.4509 34.6636 12.3989C34.5523 12.3469 34.431 12.3199 34.3081 12.3198ZM28.98 19.0398V14.8398C28.98 14.3762 29.3559 13.9998 29.82 13.9998H33.5202C33.7692 13.9998 34.0057 14.1107 34.1653 14.3022L37.6651 18.5022C38.1208 19.0495 37.7319 19.8798 37.0196 19.8798H29.82C29.3559 19.8798 28.98 19.504 28.98 19.0398ZM0.84 30.3803H2.99085C3.40667 30.3803 3.77499 30.0808 3.82873 29.6684C4.15841 27.1425 6.17318 25.5759 8.61041 25.5759C11.0476 25.5759 13.0624 27.1425 13.3921 29.6684C13.4458 30.0808 13.8137 30.3803 14.23 30.3803H24.78C25.2437 30.3803 25.62 30.0039 25.62 29.5403V8.54026C25.62 8.07661 25.2436 7.70026 24.78 7.70026H0.84C0.375873 7.70026 0 8.07661 0 8.54026V29.5403C0 30.004 0.375873 30.3803 0.84 30.3803Z" fill="#FF5042"/>
<path d="M8.61001 27.1597C6.6415 27.1597 5.04001 28.7616 5.04001 30.7297C5.04001 32.6982 6.6415 34.2997 8.61001 34.2997C10.5781 34.2997 12.18 32.6982 12.18 30.7297C12.18 28.7616 10.5781 27.1597 8.61001 27.1597ZM8.61001 31.7797C8.03086 31.7797 7.56001 31.3089 7.56001 30.7297C7.56001 30.1506 8.03086 29.6797 8.61001 29.6797C9.18916 29.6797 9.66001 30.1506 9.66001 30.7297C9.66001 31.3089 9.18916 31.7797 8.61001 31.7797Z" fill="#FF5042"/>
</g>
<defs>
<clipPath id="clip0_118_3347">
<rect width="42" height="42" fill="white"/>
</clipPath>
</defs>
</svg>
