<svg width="36" height="36" viewBox="0 0 36 36" fill="none" xmlns="http://www.w3.org/2000/svg">
<path d="M35.52 11.82L18.645 0.19499C18.453 0.0702033 18.229 0.00378418 18 0.00378418C17.771 0.00378418 17.547 0.0702033 17.355 0.19499L0.48 11.82C0.18 12.03 -4.76837e-07 12.375 -4.76837e-07 12.75V34.5C-4.76837e-07 35.325 0.674999 36 1.5 36H7.5V19.125C7.5 18.5055 8.007 18 8.625 18H27.375C27.9945 18 28.5 18.5055 28.5 19.125V36H34.5C35.325 36 36 35.325 36 34.5V12.75C36 12.375 35.82 12.03 35.52 11.82Z" fill="#FF5042"/>
<path d="M9.75 26.25H26.25V30H9.75V26.25ZM9.75 32.25H26.25V36H9.75V32.25ZM9.75 20.25H26.25V24H9.75V20.25Z" fill="#FF5042"/>
</svg>
