<svg width="42" height="42" viewBox="0 0 42 42" fill="none" xmlns="http://www.w3.org/2000/svg">
<g clip-path="url(#clip0_118_3412)">
<path d="M24.7089 4.77158C24.7089 3.60034 23.756 2.64746 22.5848 2.64746H19.4152C18.2439 2.64746 17.291 3.60034 17.291 4.77158V7.94725H24.7089V4.77158ZM21.3111 15.9365L33.6235 19.1536V11.2139C33.6235 10.7696 33.2621 10.4082 32.8178 10.4082H9.18225C8.73797 10.4082 8.37654 10.7696 8.37654 11.2139V19.1536L20.689 15.9365C20.893 15.8833 21.1071 15.8833 21.3111 15.9365Z" fill="#FF5042"/>
<path d="M40.7695 36.8915C39.4115 36.8915 38.7989 36.5864 38.0232 36.2001C37.6591 36.0188 37.2751 35.8276 36.8169 35.6648C36.1807 35.4386 35.4011 35.2671 34.3328 35.2521L38.8379 23.911C38.9377 23.6417 38.858 23.4175 38.8011 23.3074C38.7439 23.1963 38.6058 22.999 38.3242 22.9254L21 18.3989L3.6759 22.9254C3.39421 22.999 3.25615 23.1963 3.19897 23.3074C3.14213 23.4176 3.06231 23.6421 3.1623 23.9114L7.65737 35.2523C6.58949 35.2683 5.81068 35.4409 5.17494 35.6679C4.72057 35.8301 4.33904 36.02 3.9772 36.2002C3.20143 36.5864 2.58874 36.8916 1.23055 36.8916C0.551004 36.8916 8.2016e-05 37.4425 8.2016e-05 38.122C8.2016e-05 38.8016 0.551004 39.3525 1.23055 39.3525C3.16747 39.3525 4.18039 38.8482 5.07404 38.4033C5.42227 38.2299 5.738 38.0732 6.10263 37.9528C6.55044 37.8049 7.07208 37.712 7.82069 37.712C7.99157 37.712 8.15054 37.7168 8.29968 37.7261C9.33557 37.7901 9.88919 38.0657 10.5673 38.4033C11.461 38.8483 12.4739 39.3526 14.4108 39.3526C16.3477 39.3526 17.3605 38.8483 18.2542 38.4033C19.0299 38.0171 19.6426 37.712 21.0007 37.712C22.3587 37.712 22.9713 38.017 23.747 38.4033C24.6406 38.8483 25.6535 39.3526 27.5903 39.3526C29.5271 39.3526 30.54 38.8483 31.4336 38.4033C32.1139 38.0646 32.669 37.7884 33.7111 37.7255C33.8673 37.7163 34.0236 37.7118 34.18 37.712C34.9205 37.712 35.4387 37.8031 35.8832 37.9482C36.254 38.0692 36.5736 38.2277 36.9264 38.4033C37.82 38.8483 38.8329 39.3526 40.7697 39.3526C41.4492 39.3526 42.0002 38.8017 42.0002 38.1221C42.0002 37.4426 41.4491 36.8915 40.7695 36.8915ZM9.62415 24.6959L20.6889 21.8048C20.8929 21.7516 21.1071 21.7516 21.3111 21.8048L32.3758 24.6959C33.0333 24.8677 33.4271 25.54 33.2553 26.1975C33.1108 26.7507 32.6118 27.1172 32.0657 27.1172C31.9604 27.1172 31.8556 27.1036 31.7538 27.077L21 24.2671L10.2463 27.077C9.5888 27.2487 8.91647 26.855 8.74469 26.1975C8.57292 25.54 8.96667 24.8677 9.62415 24.6959Z" fill="#FF5042"/>
</g>
<defs>
<clipPath id="clip0_118_3412">
<rect width="42" height="42" fill="white"/>
</clipPath>
</defs>
</svg>
