<svg width="42" height="42" viewBox="0 0 42 42" fill="none" xmlns="http://www.w3.org/2000/svg">
<path d="M38.3381 23.86C37.4851 18.6539 34.8059 13.9217 30.7808 10.5115C26.7556 7.10138 21.6476 5.23611 16.3721 5.25002H2.625V10.5H9.1875C9.5356 10.5 9.86944 10.6383 10.1156 10.8844C10.3617 11.1306 10.5 11.4644 10.5 11.8125V19.6875C10.5 20.0356 10.3617 20.3695 10.1156 20.6156C9.86944 20.8617 9.5356 21 9.1875 21H2.625V31.5H31.8649C35.9218 31.5 39.0049 27.8552 38.3381 23.86ZM31.1338 20.3451C31.0186 20.5442 30.853 20.7095 30.6538 20.8244C30.4545 20.9394 30.2285 20.9999 29.9985 21H15.75C15.4019 21 15.0681 20.8617 14.8219 20.6156C14.5758 20.3695 14.4375 20.0356 14.4375 19.6875V11.8125C14.4375 11.4644 14.5758 11.1306 14.8219 10.8844C15.0681 10.6383 15.4019 10.5 15.75 10.5H16.3721C22.4674 10.5 28.1256 13.7708 31.1378 19.0352C31.2519 19.2348 31.3116 19.4608 31.3109 19.6907C31.3102 19.9205 31.2491 20.1462 31.1338 20.3451ZM39.375 36.75H2.625V34.125H39.375V36.75Z" fill="#FF5042"/>
</svg>
