<svg width="123" height="143" viewBox="0 0 123 143" fill="none" xmlns="http://www.w3.org/2000/svg">
<path d="M9.55954 21.2936C11.085 20.7848 11.8985 19.1566 11.39 17.6301C10.8816 16.1037 9.25446 15.2896 7.72903 15.7984C6.20361 16.3072 5.39005 17.9354 5.89852 19.4619C6.407 20.9883 8.03412 21.8024 9.55954 21.2936Z" fill="#E8E7E6"/>
<path d="M108.305 17.8334C109.119 17.8334 109.831 17.1211 109.831 16.307C109.831 15.4929 109.119 14.7805 108.305 14.7805C107.492 14.7805 106.78 15.4929 106.78 16.307C106.78 17.1211 107.492 17.8334 108.305 17.8334Z" fill="#FFBC3B"/>
<path d="M15.7629 107.69C16.7798 107.69 17.5934 106.876 17.5934 105.859C17.5934 104.841 16.7798 104.027 15.7629 104.027C14.7459 104.027 13.9324 104.841 13.9324 105.859C13.9324 106.876 14.7459 107.69 15.7629 107.69Z" fill="#FFC351"/>
<path d="M115.22 38.0843V82.046C115.22 82.7584 115.22 83.3689 115.119 83.9795C114.508 88.9659 111.661 93.4435 107.186 95.9876L69.2542 117.867C65.6949 120.004 61.322 120.513 57.3559 119.495C55.8305 119.19 54.4068 118.579 53.1864 117.867L15.2542 95.8858C12.3051 94.2576 10.1695 91.8153 8.74577 88.8642C7.72882 86.7271 7.11865 84.2848 7.11865 81.8425V38.0843C7.11865 35.7438 7.62713 33.505 8.54238 31.4697C9.96611 28.4168 12.1017 25.8727 15.1526 24.1428L53.0848 2.26367C56.8475 0.0248787 61.1187 -0.483937 65.0848 0.431932C66.5085 0.737221 67.8305 1.3478 69.2542 2.06014L107.186 23.9392C110.542 25.8727 112.983 28.9256 114.305 32.5891C114.814 34.4208 115.22 36.2526 115.22 38.0843Z" fill="#FFEEEC"/>
<path d="M20.949 6.84252H19.1185V1.44907C19.1185 0.940256 19.627 0.533203 20.0338 0.533203C20.5423 0.533203 20.949 1.04202 20.949 1.44907V6.84252V6.84252Z" fill="#D0CECE"/>
<path d="M101.085 6.84252H102.916V1.44907C102.916 0.940256 102.407 0.533203 102 0.533203C101.492 0.533203 101.085 1.04202 101.085 1.44907V6.84252V6.84252Z" fill="#D0CECE"/>
<path opacity="0.2" d="M61.017 48.8714C65.2882 48.8714 68.6441 46.5308 68.6441 43.7832C68.6441 40.9339 65.1865 38.6951 61.017 38.6951C56.8475 38.6951 53.3899 41.0356 53.3899 43.7832C53.3899 46.5308 56.7458 48.8714 61.017 48.8714Z" fill="url(#paint0_linear_140_48662)"/>
<path opacity="0.2" d="M61.0165 22.5146C63.1521 22.5146 64.9826 21.0899 64.9826 19.2581C64.9826 17.4264 63.2538 16.0017 61.0165 16.0017C58.7792 16.0017 57.0504 17.4264 57.0504 19.2581C57.0504 21.0899 58.8809 22.5146 61.0165 22.5146Z" fill="url(#paint1_linear_140_48662)"/>
<g filter="url(#filter0_d_140_48662)">
<path d="M95.492 58.7422V105.248C95.492 106.367 94.9835 107.283 94.2716 107.894C93.6614 108.403 92.8479 108.708 91.9326 108.708H29.2886C27.3564 108.708 25.8309 107.08 25.8309 105.248V58.7422C25.8309 56.8087 27.3564 55.2822 29.2886 55.2822H92.0343C93.8648 55.2822 95.492 56.9104 95.492 58.7422Z" fill="#FF5042"/>
</g>
<path d="M67.5253 55.2822V70.1397C67.5253 70.7502 67.2202 71.259 66.7117 71.4626L62.2371 73.9049C61.7287 74.2102 61.0168 74.1084 60.5083 73.8031L57.6609 71.6661C57.0507 71.2591 56.3388 71.2591 55.7287 71.6661C54.7117 72.4802 53.1863 71.7679 53.1863 70.4449V55.2822H67.5253Z" fill="#FF847B"/>
<path d="M56.0339 17.1212V21.5988L50.9492 23.5323C50.9492 23.5323 50.9492 19.2583 50.9492 16.9177C50.9492 15.7983 50.4407 14.2719 49.5255 13.1525C48.7119 12.1348 47.3899 11.3207 45.9661 11.3207H24.1017C22.5763 11.3207 21.356 10.7102 20.339 9.79429C19.4238 8.87842 18.8136 7.5555 18.8136 6.02905H21.356L21.6611 6.53787C22.4746 7.86079 23.8983 8.6749 25.4238 8.6749H48.7119C51.356 8.6749 53.0848 9.99782 54.3051 11.4225C54.8136 11.9313 55.017 12.4401 55.3221 13.0507C55.8306 14.3736 56.0339 15.6966 56.0339 17.1212Z" fill="#A19D9D"/>
<path opacity="0.2" d="M55.2205 13.1526C55.8307 14.4755 56.0341 15.6967 56.0341 17.1214V21.5989L50.9494 23.5324C50.9494 23.5324 50.9494 19.2584 50.9494 16.9178C50.9494 15.7984 50.4409 14.272 49.5256 13.1526H55.2205V13.1526Z" fill="url(#paint2_linear_140_48662)"/>
<path d="M40.4747 5.11313H1.42385C0.610291 5.11313 0.00012207 4.60431 0.00012207 3.89197C0.00012207 3.17963 0.610291 2.46729 1.42385 2.46729H40.4747C41.1866 2.46729 41.8984 3.07786 41.8984 3.89197C41.695 4.60431 41.1866 5.11313 40.4747 5.11313Z" fill="#A19D9D"/>
<path d="M103.22 6.02905C103.22 7.45374 102.61 8.77666 101.695 9.79429C100.779 10.7102 99.4574 11.3207 97.932 11.3207H75.9659C74.4404 11.3207 73.2201 12.1348 72.4065 13.1525C71.4913 14.2719 70.9828 15.6966 70.9828 16.9177C70.9828 19.2583 70.9828 23.5323 70.9828 23.5323L65.8981 21.5988V17.1212C65.8981 15.6966 66.1015 14.3736 66.7116 13.1525C66.915 12.5419 67.3218 12.0331 67.7286 11.5243C68.8472 9.99782 70.6777 8.77666 73.3218 8.77666H97.0167C98.1354 8.77666 99.3557 8.06432 100.068 7.14845L100.678 6.23258H103.22V6.02905Z" fill="#A19D9D"/>
<path opacity="0.2" d="M70.9828 16.9178C70.9828 19.2584 70.9828 23.5324 70.9828 23.5324L65.8981 21.5989V17.1214C65.8981 15.6967 66.1015 14.3737 66.7116 13.1526H72.3048C71.4913 14.272 70.9828 15.6967 70.9828 16.9178Z" fill="url(#paint3_linear_140_48662)"/>
<path d="M81.5592 5.11304H120.61C121.322 5.11304 122.034 4.50246 122.034 3.68836C122.034 2.97601 121.424 2.26367 120.61 2.26367H81.5592C80.8474 2.26367 80.1355 2.87425 80.1355 3.68836C80.2372 4.60423 80.7457 5.11304 81.5592 5.11304Z" fill="#A19D9D"/>
<path d="M49.9318 28.0098V35.9473L47.2877 36.7614L43.525 38.0843L40.7793 38.8984L34.881 40.6284L32.6437 36.4561L40.7793 32.4873L43.4233 31.1644L47.2877 29.3327L49.9318 28.0098Z" fill="#A19D9D"/>
<path opacity="0.2" d="M40.7793 32.3856V37.372C40.7793 37.8808 40.7793 38.2879 40.881 38.6949L43.5251 37.8808L47.3895 36.7614V29.231L40.7793 32.3856Z" fill="#A19D9D"/>
<path d="M32.6445 43.0706L31.6276 44.8006L25.1191 55.791V68.6132L23.1869 66.1709C22.2717 65.0515 21.7632 63.6268 21.7632 62.1003V54.1628C21.7632 52.8399 22.2717 51.7205 23.0852 50.7029L27.7632 41.8495L29.6954 38.0842L32.6445 43.0706Z" fill="#A19D9D"/>
<path d="M32.6443 43.0706L31.6274 44.8006C29.7968 44.8006 28.1697 43.4776 27.6613 41.7477L29.5935 37.9824L32.6443 43.0706Z" fill="#726C6B"/>
<path d="M32.4411 43.6813C34.6784 43.6813 36.5089 41.8496 36.5089 39.6108C36.5089 37.372 34.6784 35.5403 32.4411 35.5403C30.2038 35.5403 28.3733 37.372 28.3733 39.6108C28.3733 41.8496 30.2038 43.6813 32.4411 43.6813Z" fill="white"/>
<path d="M32.4409 41.8496C33.6612 41.8496 34.6782 40.832 34.6782 39.6109C34.6782 38.3897 33.6612 37.3721 32.4409 37.3721C31.2206 37.3721 30.2036 38.3897 30.2036 39.6109C30.2036 40.832 31.2206 41.8496 32.4409 41.8496Z" fill="#726C6B"/>
<path d="M88.7799 36.3543L86.4409 40.5266L80.6443 38.7967L78.407 38.0843L73.5256 36.6596L71.39 35.9473V28.0098L73.5256 29.0274L78.5087 31.368L80.746 32.3856L88.7799 36.3543Z" fill="#A19D9D"/>
<path opacity="0.2" d="M80.7456 32.3857V37.1686C80.7456 37.7792 80.7456 38.1862 80.6439 38.7968L78.4066 38.0845L73.5253 36.6598V28.9258L78.5083 31.3681L80.7456 32.3857Z" fill="#A19D9D"/>
<path d="M99.7632 53.9594V61.897C99.7632 63.4234 99.2547 64.8481 98.3395 65.9675L96.4073 68.4098V55.5877L89.8988 44.5972L88.8818 42.969L91.831 37.8809L93.7632 41.5443L98.5429 50.4995C99.2547 51.5171 99.7632 52.7383 99.7632 53.9594Z" fill="#A19D9D"/>
<path d="M93.6609 41.5441C93.3558 43.2741 91.7287 44.6988 89.7965 44.6988L88.7795 43.0706L91.7287 37.9824L93.6609 41.5441Z" fill="#726C6B"/>
<path d="M88.8818 43.6813C91.119 43.6813 92.9496 41.8496 92.9496 39.6108C92.9496 37.372 91.119 35.5403 88.8818 35.5403C86.6445 35.5403 84.814 37.372 84.814 39.6108C84.814 41.8496 86.6445 43.6813 88.8818 43.6813Z" fill="white"/>
<path d="M88.8816 41.8496C90.1019 41.8496 91.1189 40.832 91.1189 39.6109C91.1189 38.3897 90.1019 37.3721 88.8816 37.3721C87.6612 37.3721 86.6443 38.3897 86.6443 39.6109C86.746 40.832 87.6612 41.8496 88.8816 41.8496Z" fill="#726C6B"/>
<path opacity="0.7" d="M64.0676 46.4287H57.8643C51.8643 46.4287 47.0846 41.5441 47.0846 35.5401V29.3325C47.0846 23.2267 51.966 18.4438 57.8643 18.4438H64.0676C70.0676 18.4438 74.8473 23.3285 74.8473 29.3325V35.5401C74.949 41.5441 70.0676 46.4287 64.0676 46.4287Z" fill="url(#paint4_linear_140_48662)"/>
<path d="M64.0676 46.4287H57.8643C51.8643 46.4287 47.0846 41.5441 47.0846 35.5401V29.3325C47.0846 23.2267 51.966 18.4438 57.8643 18.4438H64.0676C70.0676 18.4438 74.8473 23.3285 74.8473 29.3325V35.5401C74.949 41.5441 70.0676 46.4287 64.0676 46.4287Z" fill="white"/>
<path opacity="0.4" d="M56.0338 23.9393C57.5592 23.1252 59.1864 22.5146 61.0169 22.5146C66.5084 22.5146 70.8813 26.9922 70.8813 32.3857C70.8813 37.8809 66.5084 42.2567 61.0169 42.2567C55.5253 42.2567 51.1525 37.7791 51.1525 32.3857C51.1525 28.824 53.0847 25.6693 56.0338 23.9393Z" fill="#140A09"/>
<path d="M61.1182 38.2877C64.1691 38.2877 66.7115 35.7436 66.7115 32.6907C66.7115 29.6378 64.1691 27.0938 61.1182 27.0938C58.0674 27.0938 55.525 29.6378 55.525 32.6907C55.525 35.7436 58.0674 38.2877 61.1182 38.2877Z" fill="#FFEEEC"/>
<path opacity="0.2" d="M61.1182 38.2877C64.1691 38.2877 66.7115 35.7436 66.7115 32.6907C66.7115 29.6378 64.1691 27.0938 61.1182 27.0938C58.0674 27.0938 55.525 29.6378 55.525 32.6907C55.525 35.7436 58.0674 38.2877 61.1182 38.2877Z" fill="#140A09"/>
<path d="M61.119 34.6243C62.2376 34.6243 63.0512 33.7085 63.0512 32.6908C63.0512 31.5714 62.1359 30.7573 61.119 30.7573C60.0003 30.7573 59.1868 31.6732 59.1868 32.6908C59.1868 33.7085 60.0003 34.6243 61.119 34.6243Z" fill="#433B3A"/>
<path d="M95.4916 96.8018V105.248C95.4916 105.859 94.9831 106.775 94.2712 107.894C93.661 108.403 92.8475 108.708 91.9322 108.708H82.2712L75.356 100.771L77.5933 98.43L71.6949 91.7136L79.5255 92.2224L85.9322 89.2713L81.9661 85.8114L82.3729 83.6743L95.4916 96.8018Z" fill="url(#paint5_linear_140_48662)"/>
<path d="M71.7965 89.5763C71.5931 89.8816 71.4915 90.2887 71.4915 90.594C71.4915 91.5098 72.2033 92.2222 73.1186 92.2222H75.5593V100.261C75.5593 100.567 75.7626 100.77 76.0677 100.77H81.966H82.983C83.2881 100.77 83.4914 100.567 83.4914 100.261V92.2222H85.7287C86.0338 92.2222 86.4406 92.0186 86.7457 91.9169C87.4576 91.4081 87.6609 90.2887 87.0508 89.5763L80.644 81.537C80.4406 81.3335 80.4406 81.2317 80.3389 81.2317C79.627 80.7229 78.6101 80.9264 77.9999 81.537L71.7965 89.5763Z" fill="white"/>
<path d="M24.5085 26.178C25.6272 26.178 26.4407 25.2622 26.4407 24.2445C26.4407 23.1251 25.5255 22.311 24.5085 22.311C23.3899 22.311 22.5763 23.2269 22.5763 24.2445C22.4746 25.2622 23.3899 26.178 24.5085 26.178Z" fill="#FF5042"/>
<defs>
<filter id="filter0_d_140_48662" x="5.2976" y="47.5822" width="110.728" height="94.4924" filterUnits="userSpaceOnUse" color-interpolation-filters="sRGB">
<feFlood flood-opacity="0" result="BackgroundImageFix"/>
<feColorMatrix in="SourceAlpha" type="matrix" values="0 0 0 0 0 0 0 0 0 0 0 0 0 0 0 0 0 0 127 0" result="hardAlpha"/>
<feOffset dy="12.8333"/>
<feGaussianBlur stdDeviation="10.2667"/>
<feColorMatrix type="matrix" values="0 0 0 0 1 0 0 0 0 0.313726 0 0 0 0 0.258824 0 0 0 0.14 0"/>
<feBlend mode="normal" in2="BackgroundImageFix" result="effect1_dropShadow_140_48662"/>
<feBlend mode="normal" in="SourceGraphic" in2="effect1_dropShadow_140_48662" result="shape"/>
</filter>
<linearGradient id="paint0_linear_140_48662" x1="53.3464" y1="43.72" x2="68.6878" y2="43.72" gradientUnits="userSpaceOnUse">
<stop offset="0.00289017" stop-color="#606673" stop-opacity="0"/>
<stop offset="1" stop-color="#373C47"/>
</linearGradient>
<linearGradient id="paint1_linear_140_48662" x1="57.0194" y1="19.2439" x2="64.9955" y2="19.2439" gradientUnits="userSpaceOnUse">
<stop offset="0.00289017" stop-color="#606673" stop-opacity="0"/>
<stop offset="1" stop-color="#373C47"/>
</linearGradient>
<linearGradient id="paint2_linear_140_48662" x1="52.7653" y1="12.5075" x2="52.7653" y2="22.7032" gradientUnits="userSpaceOnUse">
<stop offset="0.00289017" stop-color="#606673" stop-opacity="0"/>
<stop offset="1" stop-color="#373C47"/>
</linearGradient>
<linearGradient id="paint3_linear_140_48662" x1="69.0942" y1="13.2054" x2="69.0942" y2="22.6865" gradientUnits="userSpaceOnUse">
<stop offset="0.00289017" stop-color="#606673" stop-opacity="0"/>
<stop offset="1" stop-color="#373C47"/>
</linearGradient>
<linearGradient id="paint4_linear_140_48662" x1="51.9454" y1="20.7994" x2="71.5146" y2="46.1093" gradientUnits="userSpaceOnUse">
<stop offset="0.00289017" stop-color="#606673" stop-opacity="0"/>
<stop offset="1" stop-color="#373C47"/>
</linearGradient>
<linearGradient id="paint5_linear_140_48662" x1="83.5933" y1="83.6743" x2="95.5933" y2="108.814" gradientUnits="userSpaceOnUse">
<stop stop-color="#FF7368"/>
<stop offset="1" stop-color="#FF7368" stop-opacity="0"/>
</linearGradient>
</defs>
</svg>
