<svg width="141" height="121" viewBox="0 0 141 121" fill="none" xmlns="http://www.w3.org/2000/svg">
<g id="Rating container">
<path id="Vector" d="M132.315 60.0591C132.315 68.4532 130.544 76.4926 127.476 83.7044C123.108 93.8719 116.026 102.621 107.056 109.005C97.2589 115.98 85.3375 120 72.3537 120C39.3042 120 12.3925 93.1626 12.3925 60.0591C12.3925 53.202 13.5728 46.5813 15.6974 40.4335C17.2318 36.0591 19.1204 32.0394 21.5991 28.2562C32.2222 11.3498 50.8715 0.118227 72.1177 0H72.4718C73.298 0 74.1242 0 74.9505 0C79.1997 0.118227 83.3309 0.827586 87.344 1.7734C93.4818 3.31034 99.1474 5.7931 104.341 9.10345C114.964 15.7241 123.344 25.6552 128.066 37.3596L129.482 41.3793C131.371 47.2906 132.315 53.5566 132.315 60.0591Z" fill="#FFB9B3"/>
<g id="Rating">
<path id="Vector_2" d="M127.948 37.4778C127.594 37.1232 127.122 36.8867 126.886 36.8867C125.941 36.532 123.699 37.0049 123.463 34.4039C123.463 34.2857 123.345 34.1675 123.227 33.931C122.754 34.5222 122.282 34.9951 121.574 35.8227C120.984 34.6404 120.512 33.5764 120.04 32.3941C119.685 32.7488 119.449 33.1035 119.095 33.2217C118.623 33.4581 118.033 33.8128 117.679 33.5764C116.735 33.1034 116.735 30.9754 116.617 30.3842C114.374 31.2118 113.194 29.3202 111.305 28.9655C111.069 30.3842 110.833 31.9212 110.597 33.4581C104.459 34.9951 104.813 34.4039 101.272 28.2562C102.571 27.1921 103.987 26.601 105.521 26.601C108.354 26.7192 111.069 23.0542 110.597 22.2266C109.771 21.0443 110.125 19.7438 110.361 18.3251C109.889 18.2069 109.417 17.9704 108.944 18.0887C107.764 18.2069 107.174 17.734 106.702 16.6699C105.994 14.7783 103.397 16.9064 102.807 13.3596C102.098 9.10345 103.043 9.22167 104.341 9.10345C99.1476 5.7931 93.4819 3.31034 87.3442 1.7734C87.1081 2.12808 86.636 2.71921 86.5179 3.07389C84.9835 6.26601 83.6851 4.25616 81.9146 6.26601C80.3802 8.03941 78.8457 9.81281 77.3113 11.7044C75.0686 10.5222 74.3604 8.39409 73.7703 6.14778C73.0621 3.5468 75.0686 1.7734 74.9506 0C73.8883 0 72.5899 0 72.1178 0C73.8883 2.60099 74.0063 1.89163 69.403 5.55665C66.3341 1.06404 63.3833 6.38424 61.8488 3.19212C60.0783 4.37438 58.4258 5.43842 56.7734 6.73892C56.0652 7.21182 56.0652 9.81281 56.6553 10.4039C56.8914 10.7586 57.5996 10.9951 57.9537 10.8768C59.6062 10.2857 61.1406 9.45813 61.8488 7.5665C63.3833 8.63054 64.5636 7.80296 65.6259 6.73892C67.1604 5.20197 67.6325 6.85714 69.0489 7.92118C70.5833 9.10345 69.8751 9.57635 68.6948 11.8227C68.6948 11.9409 68.6948 12.0591 68.6948 12.2956C69.1669 12.1773 69.6391 12.0591 70.3473 11.9409C69.7571 14.069 69.285 18.5616 65.98 16.4335C64.5636 15.4877 63.9734 15.4877 63.1472 16.9064C62.6751 17.734 61.8488 17.8522 61.0226 17.8522C54.0586 18.2069 55.475 18.9163 52.5241 19.8621C50.2815 20.5714 52.8782 18.3251 44.0257 23.4089C43.6716 23.6453 43.3175 24.1182 43.1995 24.4729C42.6093 27.5468 42.4913 30.1478 41.9011 30.266C39.4224 30.5025 41.4289 24.2365 35.8813 24.1182C32.6944 24 30.2157 25.5369 28.0911 27.7833C26.4386 29.5566 25.7304 34.8768 29.8616 34.0493C30.3338 33.931 30.8059 33.6946 31.16 33.8128C32.1043 34.0493 32.5764 35.2315 31.8682 35.9409C30.9239 37.0049 28.4452 37.9507 30.2157 39.133C31.16 39.7241 30.6879 40.0788 30.6879 43.5074C30.6879 45.399 32.1043 46.4631 34.4649 47.4089C37.8879 48.5911 37.5338 43.2709 40.8388 45.2808C42.2552 46.1084 43.7896 46.936 45.4421 47.5271C46.8585 48.1182 48.1569 48.8276 49.2192 50.0099C50.7536 51.665 56.0652 52.0197 58.6619 58.8768C59.016 59.9409 60.0783 60.7685 60.5505 61.8325C61.1406 63.2512 62.0849 63.7241 63.5013 64.0788C67.0423 64.9064 70.2292 67.3892 70.2292 69.1626C70.2292 71.4089 69.285 73.1823 67.5145 74.601C65.98 75.9015 65.6259 79.0936 63.7374 82.0493C60.5505 86.8965 57.5996 85.1231 56.0652 87.3694C54.7668 89.2611 53.4684 91.0345 52.2881 92.9261C50.9897 95.1724 46.2683 97.1823 44.6159 99.5468C43.3175 101.438 41.783 103.33 42.4913 106.049C42.8454 107.232 43.4355 110.069 43.4355 111.606C41.3109 111.015 40.0125 109.596 38.5961 108.177C36.4715 105.931 35.8814 103.212 35.6453 100.256C35.5272 99.4286 35.0551 98.601 34.9371 97.7734C34.9371 96.1182 35.0551 94.3448 35.1731 92.6896C35.2912 91.5074 35.6453 90.3251 35.0551 89.0246C34.819 88.4335 34.9371 87.4877 35.0551 86.7783C35.9994 80.1576 36.2355 79.6847 35.9994 79.33C34.4649 77.7931 34.4649 76.1379 34.9371 74.601C32.9305 72.3547 31.16 70.3448 29.3895 68.335C28.5632 67.3892 28.2091 66.2069 28.2091 64.9064C28.2091 63.9606 27.855 63.133 27.737 62.1872C27.3829 58.4039 29.3895 56.7488 31.3961 53.7931C33.5207 50.7192 32.2223 48.3547 31.5141 47.8818C27.855 45.8719 29.3895 43.1527 27.619 41.8522C25.8485 40.5517 26.4386 39.3695 26.5567 38.3054C23.0156 35.7044 20.773 35.1133 21.8353 30.3842C21.8353 30.266 21.9533 29.9113 21.9533 29.7931C22.0714 29.3202 21.9533 28.8473 21.7173 28.3744V28.2562C21.7173 28.2562 21.7173 28.1379 21.5992 28.1379C15.8156 37.3596 12.5106 48.2365 12.5106 60.0591C12.5106 91.8621 37.2978 117.99 68.5768 119.882C69.8751 120 71.1735 120 72.4719 120C85.3376 120 97.3771 115.862 107.174 109.005V108.887C107.174 108.768 107.292 108.65 107.292 108.414V108.296C107.292 108.296 107.292 108.296 107.292 108.177C108 106.286 108.826 104.394 109.771 102.621C113.194 96.5911 107.056 96.1182 112.721 89.2611C113.43 88.3153 116.853 85.8325 114.846 81.5764C114.02 79.803 113.902 78.3842 114.138 77.0837C114.61 74.601 116.263 72.7094 115.554 69.8719C115.318 68.6897 115.082 68.5714 114.02 69.0443C113.312 69.399 112.958 69.1626 112.367 68.8079C111.305 68.2167 109.889 67.7438 108.708 67.9803C100.21 69.5172 95.9607 63.0148 94.4262 61.9507C91.4754 59.9409 92.6557 57.4581 94.6623 48.1182C94.7803 47.7635 94.8984 47.2906 94.7803 46.936C93.836 44.335 95.4885 43.0345 97.141 41.6158C97.259 41.4975 97.3771 41.3793 97.4951 41.3793C99.6197 40.7882 100.918 39.2512 102.216 37.7143C102.334 37.5961 102.453 37.3596 102.689 37.3596C106.23 36.0591 109.771 34.9951 113.43 36.4138C115.554 37.2414 116.735 34.9951 122.046 39.4877C124.997 42.2069 125.233 40.9064 129.364 41.4975L127.948 37.4778ZM37.2978 34.5222C38.242 32.6305 39.5404 32.5123 41.0748 33.4581C41.9011 33.931 42.3732 33.931 45.9142 34.9951C45.9142 35.2315 45.7962 35.3498 45.7962 35.5862C42.8454 35.9409 40.1306 35.1133 37.2978 34.5222ZM49.1012 39.6059C47.0946 39.3695 45.4421 39.2512 43.7896 39.0148C44.97 37.4778 47.9208 37.1232 49.1012 38.3054C49.3372 38.5419 49.1012 39.2512 49.1012 39.6059ZM82.8589 8.51231C85.3376 7.44828 86.2819 6.97537 87.3442 8.15763C87.5802 8.39409 87.3442 8.98522 87.2261 9.45813C86.9901 10.2857 86.2819 10.9951 85.8097 11.468C84.6294 10.9951 83.5671 10.7586 82.6228 10.1675C81.9146 9.69458 82.0326 8.86699 82.8589 8.51231ZM99.5017 19.7438C99.1476 19.2709 98.9115 18.798 98.5574 18.2069C99.7377 17.2611 100.446 17.0246 100.092 15.9606C99.9738 15.7241 100.092 15.133 100.21 15.0148C100.446 14.8966 101.036 14.7783 101.272 15.0148C102.689 16.5517 104.931 17.3793 105.639 19.5074C105.639 19.6256 105.757 19.6256 105.757 19.7438C105.876 20.4532 106.23 21.5172 105.994 21.6355C105.167 22.2266 104.223 22.6995 103.279 22.6995C102.334 22.6995 101.862 21.7537 101.862 20.8079C101.862 20.2167 101.626 19.6256 101.508 18.9163C100.564 19.2709 100.092 19.5074 99.5017 19.7438Z" fill="#FFEEEC"/>
</g>
<path id="Vector 3" d="M31.6759 57.8284C9.19732 61.6353 -13.8357 84.6816 16.6965 92.721" stroke="#FFC351" stroke-width="4.24779" stroke-miterlimit="10" stroke-linecap="round" stroke-linejoin="round" stroke-dasharray="1.06 7.43"/>
<path id="Vector_3" d="M16.6422 20.4528C17.7045 20.4528 18.6488 19.6252 18.6488 18.443C18.6488 17.3789 17.8225 16.4331 16.6422 16.4331C15.5799 16.4331 14.6356 17.2607 14.6356 18.443C14.7537 19.6252 15.5799 20.4528 16.6422 20.4528Z" fill="#FF5042"/>
<path id="Vector_4" d="M16.8775 110.187C17.9399 110.187 18.8841 109.36 18.8841 108.177C18.8841 106.995 18.0579 106.167 16.8775 106.167C15.8152 106.167 14.871 106.995 14.871 108.177C14.871 109.36 15.8152 110.187 16.8775 110.187Z" fill="#FF5042"/>
<path id="Vector_5" d="M126.941 19.9568C128.003 19.9568 128.829 19.1292 128.829 18.0652C128.829 17.0012 128.003 16.1736 126.941 16.1736C125.878 16.1736 125.052 17.0012 125.052 18.0652C125.17 19.1292 125.996 19.9568 126.941 19.9568Z" fill="#FFBC3B"/>
<path id="Vector_6" d="M12.3925 119.527H16.8777" stroke="#F3F3F3" stroke-width="2.12389" stroke-miterlimit="10" stroke-linecap="round" stroke-linejoin="round"/>
<g id="Rating_2">
<path id="Vector_7" d="M67.4864 41.4506L60.8267 36.7123L60.6505 36.542C59.7731 35.8637 59.5751 34.6522 60.0711 33.6015C60.5707 32.7243 61.4227 32.1879 62.4619 32.3423C63.6736 32.4937 65.4066 32.809 68.0099 33.4555C73.0546 35.2723 82.7736 37.6975 82.7736 37.6975L67.4864 41.4506Z" fill="#FF5042"/>
<path id="Vector_8" d="M123.419 49.4487C125.135 49.4172 126.496 47.9931 126.46 46.2681C126.424 44.543 125.004 43.1701 123.289 43.2017C121.573 43.2332 120.211 44.6572 120.247 46.3823C120.284 48.1074 121.704 49.4803 123.419 49.4487Z" fill="#140A09"/>
<path id="Vector_9" d="M87.6573 64.8623C89.3729 64.8308 90.7345 63.4067 90.6984 61.6816C90.6623 59.9566 89.2423 58.5837 87.5266 58.6152C85.811 58.6468 84.4494 60.0708 84.4855 61.7959C84.5215 63.521 85.9416 64.8939 87.6573 64.8623Z" fill="#140A09"/>
<path id="Vector_10" d="M138.949 32.4983C139.319 33.7066 139.535 35.7858 137.328 37.5624C135.121 39.3389 132.913 41.1155 122.448 44.2591C111.982 47.4027 82.2958 56.1076 73.1961 58.5317C64.1001 61.1293 54.9532 61.2975 49.0637 60.3642C43.1705 59.2574 36.3818 56.6047 34.2165 52.131C32.2237 47.6541 37.0705 48.2594 37.0705 48.2594L38.4838 49.7958C38.4838 49.7958 117.407 26.1242 120.499 25.3729C123.591 24.6217 127.56 24.5487 130.358 26.2332C131.052 26.394 131.577 26.7316 131.933 27.2458C133.688 28.6023 134.925 29.9683 135.105 30.3122C135.105 30.3122 138.574 31.1164 138.949 32.4983Z" fill="#FF7368"/>
<path id="Vector_11" d="M61.2147 71.7714L73.3177 56.0988C74.1588 55.0418 73.7846 53.6599 72.7346 52.9848C71.8608 52.4801 72.008 51.2622 72.8637 50.8993C75.9447 49.6274 81.769 47.4372 86.9174 45.9537C94.1223 43.7381 95.8554 44.0534 97.5993 44.8893C99.5158 45.7221 102.321 47.7537 101.832 49.1514C101.512 50.3725 100.826 50.5587 99.8045 51.2718C98.7836 51.985 71.9329 72.4423 69.891 73.8687C67.8526 75.4685 65.4655 76.9012 63.5671 76.9361C61.6687 76.971 59.7594 76.4853 59.4106 76.3181C59.2308 75.9742 58.3498 75.1225 59.3598 73.8887C60.5425 72.6518 61.2147 71.7714 61.2147 71.7714Z" fill="#FF5042"/>
<path id="Vector_12" d="M40.1453 54.973L44.9449 53.3223L45.8006 52.9594C46.3147 52.7764 46.8361 52.9404 47.1885 53.2811C47.5445 53.7953 47.559 54.4894 47.0522 55.0196L37.5726 64.0473C37.2347 64.4007 36.717 64.4102 36.3718 64.4166C35.5053 64.2589 34.9694 63.4008 35.2964 62.5268L37.7582 56.4056C37.9235 56.0554 38.2614 55.702 38.6066 55.6956L40.1453 54.973Z" fill="#FF5042"/>
<path id="Vector_13" d="M36.1286 52.7902C36.1286 52.7902 35.3967 53.0152 34.9278 53.1594C32.5881 50.0527 31.834 47.5619 30.2123 44.394C28.5989 41.2423 26.6479 36.9936 26.6479 36.9936C26.4645 36.4762 26.4536 35.9556 26.7915 35.6022C27.1258 35.0753 27.9851 34.8859 28.5137 35.397L40.0637 42.8228C40.9375 43.3275 41.8113 43.8322 42.8577 44.3338L48.9525 46.8257C49.3013 46.9928 49.3121 47.5134 48.9706 47.6933C47.2629 48.5927 45.3456 49.495 42.149 50.7752C38.6075 52.1934 36.1286 52.7902 36.1286 52.7902Z" fill="#FF5042"/>
<path id="Vector_14" d="M135.1 30.1385C133.569 31.2082 132.034 32.1044 130.326 33.0038C129.643 33.3635 129.129 33.5466 128.442 33.7328C127.41 33.9254 126.537 33.4207 126.173 32.5594C125.806 31.5245 126.302 30.4738 127.158 30.1109C127.672 29.9279 128.186 29.7448 128.528 29.5649C129.725 29.0221 130.404 28.4888 131.932 27.2456C133.687 28.6021 134.924 29.9681 135.1 30.1385Z" fill="#FF5042"/>
</g>
</g>
</svg>
