<svg width="123" height="121" viewBox="0 0 123 121" fill="none" xmlns="http://www.w3.org/2000/svg">
<g id="Switch container">
<path id="Vector" d="M123 60.4916C123 74.1831 118.427 86.8789 110.763 97.0853C106.56 102.562 101.492 107.416 95.6828 111.15C86.2887 117.374 75.0405 120.983 62.927 120.983C29.6768 120.859 2.73047 93.7246 2.73047 60.3671C2.73047 27.0096 29.6768 0 62.8034 0C74.9169 0 86.1651 3.60958 95.5592 9.70853C101.369 13.4426 106.437 18.2968 110.639 23.7735C118.427 34.1043 123 46.6756 123 60.4916Z" fill="#FFEEEC"/>
<path id="Vector_2" d="M119.985 27.6319C121.097 27.6319 121.962 26.7606 121.962 25.6404C121.962 24.5202 121.097 23.6489 119.985 23.6489C118.872 23.6489 118.007 24.5202 118.007 25.6404C118.13 26.7606 118.996 27.6319 119.985 27.6319Z" fill="#FFBC3B"/>
<path id="Vector_3" d="M11.7773 20.7533C12.8897 20.7533 13.755 19.882 13.755 18.7618C13.755 17.6415 12.8897 16.7703 11.7773 16.7703C10.6648 16.7703 9.79956 17.6415 9.79956 18.7618C9.79956 19.882 10.7884 20.7533 11.7773 20.7533Z" fill="#FF5042"/>
<path id="Vector_4" d="M41.7901 107.043C47.8658 107.043 52.7911 101.916 52.7911 95.592C52.7911 89.2677 47.8658 84.1409 41.7901 84.1409C35.7144 84.1409 30.7891 89.2677 30.7891 95.592C30.7891 101.916 35.7144 107.043 41.7901 107.043Z" fill="#2C2322"/>
<path id="Vector_5" d="M47.4761 101.317H44.8804V106.918H47.4761V101.317Z" fill="#2C2322"/>
<path id="Vector_6" d="M45.128 107.043C51.2037 107.043 56.129 101.916 56.129 95.592C56.129 89.2677 51.2037 84.1409 45.128 84.1409C39.0523 84.1409 34.127 89.2677 34.127 95.592C34.127 101.916 39.0523 107.043 45.128 107.043Z" fill="#140A09"/>
<path id="Vector_7" d="M69.9724 98.4548H67.5002V107.043H69.9724V98.4548Z" fill="#140A09"/>
<g id="Container">
<g id="Slider">
<path id="Vector_8" d="M77.3889 6.59724L71.9502 7.59298L50.5662 91.6091L47.1052 90.7378L68.3656 6.97064C68.6128 6.09936 69.4781 5.60149 70.3433 5.72596L77.3889 6.59724Z" fill="#E8E7E6"/>
<path id="Vector_9" d="M86.6596 8.71358C86.6596 7.96677 85.7944 7.34443 85.1763 7.34443L72.9392 6.22422C71.8268 6.09975 70.8379 6.84656 70.5907 7.96677L49.3303 91.3606L52.7913 92.2318L73.3101 11.5764C73.5573 10.4561 74.5461 9.70933 75.6586 9.8338L84.6819 10.7051C85.7944 10.8295 86.6596 9.95827 86.6596 8.71358Z" fill="#D0CECE"/>
<path id="Vector_10" d="M60.5785 92.2312L59.5897 96.5876L18.7994 86.2567L1 81.6514L1.98886 77.4194L19.9119 81.9003L60.5785 92.2312Z" fill="#D0CECE"/>
<path id="Vector_11" d="M19.9119 81.9003L18.7994 86.2567L1 81.6514L1.98886 77.4194L19.9119 81.9003Z" fill="#D9E0EB"/>
</g>
<g id="Slider_2">
<path id="Vector_12" d="M103.594 6.97048L98.1553 7.96623L76.7713 91.9824L73.3103 91.1111L94.5707 7.21942C94.8179 6.34814 95.6832 5.85027 96.5484 5.97474L103.594 6.97048Z" fill="#E8E7E6"/>
<path id="Vector_13" d="M112.864 9.08663C112.864 8.33982 111.999 7.71748 111.381 7.71748L99.2677 6.59726C98.1552 6.4728 97.1664 7.2196 96.9191 8.33982L75.5352 91.7336L78.9962 92.6049L99.6385 11.9494C99.8857 10.8292 100.875 10.0824 101.987 10.2068L111.01 11.0781C111.999 11.2026 112.864 10.3313 112.864 9.08663Z" fill="#D0CECE"/>
</g>
<g id="Slider_3">
<path id="Vector_14" d="M90.9865 21.7825L67.5012 19.9155L68.2429 16.9282L91.7282 18.9197L90.9865 21.7825Z" fill="#D0CECE"/>
<path id="Vector_15" d="M92.5928 23.7739L66.3882 21.0356L67.1298 18.1729L93.3345 20.7867L92.5928 23.7739Z" fill="#E8E7E6"/>
</g>
<g id="Slider_4">
<path id="Vector_16" d="M81.2203 60.4917L57.8586 58.6247L58.6003 55.6375L81.962 57.6289L81.2203 60.4917Z" fill="#BEC9D7"/>
<path id="Vector_17" d="M82.8272 62.4834L56.6226 59.7451L57.3642 56.8823L83.5689 59.4962L82.8272 62.4834Z" fill="#D9E0EB"/>
</g>
<g id="Slider_5">
<path id="Vector_18" d="M73.9281 88.4973L50.5664 86.5058L51.3081 83.6431L74.6698 85.5101L73.9281 88.4973Z" fill="#AAB3BF"/>
<path id="Vector_19" d="M75.535 90.3645L49.3303 87.7507L50.072 84.7634L76.2766 87.3773L75.535 90.3645Z" fill="#D9E0EB"/>
</g>
</g>
<path id="Vector_20" d="M1.49341 107.416H3.71833" stroke="#E8E7E6" stroke-width="2.03333" stroke-miterlimit="10" stroke-linecap="round" stroke-linejoin="round"/>
<g id="Container_2">
<path id="Vector_21" d="M82.2098 20.5377L80.3557 27.6324L31.1602 15.1855L32.8907 8.09082L82.2098 20.5377Z" fill="#FF6155"/>
<path id="Vector_22" d="M79.4905 27.3835L72.1977 56.7581L24.7327 44.6846L32.0255 15.4346L79.4905 27.3835Z" fill="#FF5042"/>
<path id="Vector_23" d="M48.3416 11.9491L39.1947 48.4183L24.7327 44.6843L32.0255 15.4342L31.1602 15.1853L32.8907 8.09058L48.3416 11.9491Z" fill="#FF7368"/>
<path id="Vector_24" d="M32.0404 15.3501L31.8293 16.1951L79.2994 28.2168L79.5105 27.3718L32.0404 15.3501Z" fill="#ED2A1A"/>
<path id="Vector_25" opacity="0.3" d="M60.2516 15.034L51.147 51.4883L55.4624 52.5812L64.567 16.1269L60.2516 15.034Z" fill="white"/>
</g>
<g id="Container_3">
<path id="Vector_26" d="M77.0184 57.7535L75.2879 64.8482L74.299 64.5992L54.6455 59.6205L25.9688 52.4013L27.8229 45.3066L43.1501 49.1652L77.0184 57.7535Z" fill="#FF5042"/>
<path id="Vector_27" d="M74.0576 64.8159L71.4619 75.2712L66.7648 94.1904L19.2998 82.2415L26.7162 52.8669L54.4042 59.8372L74.0576 64.8159Z" fill="#FF5042"/>
<path id="Vector_28" d="M43.1499 49.1652L34.003 85.6344L19.541 82.0248L26.9574 52.6503L25.9686 52.4013L27.8227 45.3066L43.1499 49.1652Z" fill="#FF7368"/>
<path id="Vector_29" d="M26.9632 52.6565L26.7522 53.5015L74.2223 65.5232L74.4333 64.6782L26.9632 52.6565Z" fill="#ED2A1A"/>
<path id="Vector_30" opacity="0.3" d="M55.0933 52.2567L46.1997 87.866L50.5152 88.9588L59.4087 53.3496L55.0933 52.2567Z" fill="white"/>
</g>
<path id="Vector_31" d="M72.3207 84.5143L72.4444 84.1409H69.4778C63.1738 84.1409 58.106 89.2441 58.106 95.592C58.106 110.155 80.4788 111.275 80.726 95.8409C80.8496 90.2398 77.265 85.759 72.3207 84.5143Z" fill="#140A09"/>
<path id="Vector_32" d="M72.1973 107.043C78.4778 107.043 83.5691 101.916 83.5691 95.592C83.5691 89.2677 78.4778 84.1409 72.1973 84.1409C65.9168 84.1409 60.8254 89.2677 60.8254 95.592C60.8254 101.916 65.9168 107.043 72.1973 107.043Z" fill="#2C2322"/>
<path id="Vector_33" d="M72.1974 100.82C75.0645 100.82 77.3888 98.4791 77.3888 95.5919C77.3888 92.7048 75.0645 90.3643 72.1974 90.3643C69.3302 90.3643 67.0059 92.7048 67.0059 95.5919C67.0059 98.4791 69.3302 100.82 72.1974 100.82Z" fill="#140A09"/>
<path id="Vector_34" opacity="0.5" d="M77.0182 57.7536L75.2877 64.8483L74.2988 64.5994L71.7031 75.0547L54.6453 59.6206L43.1499 49.1653L77.0182 57.7536Z" fill="url(#paint0_linear_140_48727)"/>
<g id="Switch container_2">
<g id="Switch container_3">
<g id="Switch">
<path id="Vector_35" d="M110.47 63.6727C110.333 63.9498 110.333 64.2271 110.195 64.5042C109.92 65.1969 109.645 66.0284 109.232 66.7212C107.718 70.1851 103.866 74.4797 98.3617 76.5581C96.7105 77.2508 95.0594 77.667 93.2707 77.8056C91.3443 78.0827 89.1428 77.9439 87.0789 77.5282C76.0712 75.1728 69.0539 64.5042 71.393 53.4198C74.6953 37.486 94.2337 31.6668 105.517 43.1668C110.883 48.709 112.534 56.745 110.47 63.6727Z" fill="#FFBC3B"/>
</g>
</g>
<path id="Vector_36" d="M110.176 64.4899C109.901 65.1827 109.626 66.014 109.213 66.7068C107.7 70.1706 103.847 74.4658 98.343 76.5442C96.6918 77.2369 95.0407 77.6526 93.2519 77.7912L82.3818 66.8453L84.4458 65.3212L93.9399 63.9357L86.6473 56.7308L85.8217 51.8814L87.3353 47.8633L92.1512 52.7127L98.7558 53.4055L110.176 64.4899Z" fill="url(#paint1_linear_140_48727)"/>
<path id="Back 1" d="M100.681 58.9477C100.681 54.2368 96.8288 50.4958 92.1505 50.4958H87.885V48.8332C87.885 48.2789 87.4722 47.8633 86.9218 47.8633C86.6466 47.8633 86.5091 48.0018 86.3715 48.0018L81.9684 51.4657C81.5556 51.7428 81.418 52.4356 81.8308 52.8513L81.9684 52.9898L86.3715 56.4537C86.7842 56.7308 87.3346 56.7308 87.7474 56.3151C87.885 56.1766 87.885 55.8995 87.885 55.7609V54.0983H92.1505C94.7648 54.0983 96.8288 56.1766 96.8288 58.8091C96.8288 61.4417 94.7648 63.52 92.1505 63.52H83.6195C82.6564 63.52 81.6932 64.3513 81.6932 65.3212C81.6932 66.2911 82.5188 67.261 83.4819 67.261H92.1505C96.8288 67.5381 100.681 63.6586 100.681 58.9477Z" fill="white"/>
</g>
</g>
<defs>
<linearGradient id="paint0_linear_140_48727" x1="50.7003" y1="44.7392" x2="72.3076" y2="64.6859" gradientUnits="userSpaceOnUse">
<stop offset="0.00289017" stop-color="#121E5C"/>
<stop offset="1" stop-color="#3D4B6D" stop-opacity="0.2"/>
</linearGradient>
<linearGradient id="paint1_linear_140_48727" x1="83.1085" y1="52.5388" x2="104.048" y2="73.3336" gradientUnits="userSpaceOnUse">
<stop stop-color="#FECF75"/>
<stop offset="1" stop-color="#FFBC3B" stop-opacity="0.17"/>
</linearGradient>
</defs>
</svg>
